<svg xmlns="http://www.w3.org/2000/svg" width="933.333" height="933.333" preserveAspectRatio="xMidYMid meet" version="1.0" viewBox="0 0 700 700"><metadata>Created by potrace 1.11, written by Peter Selinger 2001-2013</metadata><g fill="#000" stroke="none"><path d="M1915 5783 c-262 -13 -526 -101 -738 -244 -84 -57 -102 -73 -207 -179 -105 -105 -195 -231 -259 -358 -39 -77 -93 -223 -105 -282 -3 -14 -8 -36 -11 -50 -28 -118 -30 -263 -30 -1716 l1 -1491 32 -66 c45 -92 126 -156 217 -173 22 -4 1237 -7 2700 -7 2640 0 2660 1 2712 20 80 31 138 85 175 162 l32 66 0 1325 c1 1474 5 1396 -67 1504 -45 68 -118 127 -194 157 l-58 22 -1372 1 c-755 1 -1373 3 -1374 6 0 3 -2 14 -4 25 -2 11 -6 43 -10 71 -6 63 -49 234 -71 289 -36 88 -97 212 -125 253 -16 24 -29 47 -29 52 0 4 -3 10 -7 12 -5 2 -27 28 -50 58 -72 95 -184 203 -298 288 -129 95 -354 191 -530 227 -89 17 -253 31 -330 28z" transform="translate(0.000000,700.000000) scale(0.100000,-0.100000)"/></g></svg>