<svg xmlns="http://www.w3.org/2000/svg" width="1200" height="630" fill="none" viewBox="0 0 1200 630"><path fill="#fff" d="M372.459 497.545C281.705 485.161 176.364 590.756 58.0595 527.159C14.8431 503.927 -6.76515 426.471 1.87814 346.783C10.5214 267.094 103.437 213.789 176.364 209.482C249.292 205.174 224.821 124.156 328 106.926C431.179 89.6959 421.171 143.593 619.5 57.4258C850.412 -42.8983 913 62.4259 997 126.926C1100.84 206.658 1165.41 181.395 1193.5 335.926C1221.59 490.457 1154.68 553.003 1051.5 568.08C948.318 583.156 918.066 527.158 807.865 568.08C697.663 609.001 463.214 509.929 372.459 497.545Z"/><path fill="#fff" stroke="#6BBBE9" stroke-linecap="round" stroke-linejoin="round" stroke-width="10" d="M582.139 500.671C540.561 525.447 524.874 571.904 522.853 597.426C594.921 627.708 668.953 610.043 696.961 597.426C694.189 549.25 654.323 516.443 634.112 500.671V472.282C670.204 463.679 719 462.613 719 406.041C719 333.778 674.823 295.926 596.865 295.926C532.479 295.926 494.652 336.359 492.054 406.041C489.455 475.723 582.139 451.636 582.139 472.282V500.671Z"/><path stroke="#6BBBE9" stroke-linecap="round" stroke-linejoin="round" stroke-width="10" d="M719.147 144.867C716.228 144.615 712.725 142.178 713.092 137.941C713.299 135.54 715.042 130.768 720.355 130.885C726.997 131.033 727.943 134.529 727.54 139.19C727.137 143.85 723.688 145.26 719.147 144.867ZM719.147 144.867L716.987 169.865M711.721 224.809C706.387 224.809 702.952 227.601 702.718 230.313C702.425 233.702 706.387 239.139 710.515 239.496C714.643 239.852 716.731 235.582 716.987 232.616C717.244 229.65 715.56 226.654 711.721 224.809ZM711.721 224.809L716.987 169.865M716.987 169.865L673.426 199.849M673.426 199.849C671.337 199.953 663.38 201.727 663.116 204.777C662.787 208.591 666.662 213.626 669.964 213.911C673.267 214.196 677.714 213.4 678.116 208.739C678.439 205.01 674.664 199.956 673.426 199.849Z"/><path fill="#fff" stroke="#6BBBE9" stroke-linecap="round" stroke-linejoin="round" stroke-width="10" d="M145.925 161.441C130.345 165.775 132.28 174.202 136.612 182.413L275.728 246.877C272.768 236.237 276.725 229.857 280.924 225.822L145.925 161.441Z"/><path fill="#fff" stroke="#6BBBE9" stroke-linecap="round" stroke-linejoin="round" stroke-width="10" d="M321.604 273.957C306.034 275.058 292.048 267.641 290.412 258.404C287.492 247.909 288.963 244.807 292.806 235.123C296.649 225.439 311.459 228.318 321.795 231.904C332.132 235.49 351.607 247.302 354.168 264.897C356.216 278.973 353.967 281.636 352.026 294.062C349.047 289.507 334.06 273.076 321.604 273.957Z"/><path fill="#fff" stroke="#6BBBE9" stroke-linecap="round" stroke-linejoin="round" stroke-width="10" d="M837.797 460.521C837.264 462.015 845.999 464.148 847.481 463.974C852.677 465.827 875.241 471.24 881.146 473.346L891.775 477.136C893.288 477.675 894.621 472.887 893.856 471.299C893.244 470.028 890.751 466.069 889.117 465.924L893.833 449.711C902.99 424.028 891.68 414.207 880.02 410.049C870.099 406.512 856.432 413.481 851.604 427.023C847.741 437.856 844.978 448.345 843.781 453.444C843.313 453.014 841.334 454.782 839.545 455.618C837.309 456.663 838.463 458.653 837.797 460.521Z"/><path stroke="#6BBBE9" stroke-linecap="round" stroke-linejoin="round" stroke-width="10" d="M833.362 540.097C842.848 511.516 861.624 453.861 860.848 451.884C859.878 449.413 871.86 452.889 876.184 453.368L845.313 559.233"/><path fill="#fff" d="M833.758 169.349C828.753 161.254 829.121 155.286 834.037 153.665C880.394 135.648 968.79 97.1406 983.538 92.277C995.823 88.2255 996.964 90.9097 1002.64 104.254L1002.8 104.636C1014.37 131.872 1034.66 182.378 1036.71 188.565C1037.4 190.685 1036.9 192.476 1035.76 193.951C1057.56 201.052 1100.45 216.585 1097.54 221.913C1093.89 228.572 952.294 299.756 937.321 301.575C922.348 303.394 881.604 263.818 882.126 260.528C878.428 260.288 876.313 257.106 873.748 252.831C867.696 242.743 840.767 180.683 833.758 169.349Z"/><path stroke="#6BBBE9" stroke-linecap="round" stroke-linejoin="round" stroke-width="10" d="M894.913 172.982L888.77 204.608L914.389 214.177M967.584 141.938L992.424 154.981L985.23 179.875M937.483 151.865L940.657 194.575M834.037 153.665C829.121 155.286 828.753 161.254 833.758 169.349C840.767 180.683 867.696 242.743 873.748 252.831C877.407 258.929 880.152 262.803 887.88 259.085C894.063 256.111 984.001 218.031 1026.15 199.062C1030.52 198.141 1038.75 194.753 1036.71 188.565C1034.66 182.378 1014.37 131.872 1002.8 104.636C996.984 90.9611 995.939 88.1872 983.538 92.277C968.79 97.1406 880.394 135.648 834.037 153.665ZM1035.76 193.951C1057.56 201.052 1100.45 216.585 1097.54 221.913C1093.89 228.572 952.294 299.756 937.321 301.575C922.348 303.394 881.604 263.818 882.126 260.528C882.544 257.895 984.063 215.807 1035.76 193.951Z"/><path fill="#fff" stroke="#6BBBE9" stroke-linecap="round" stroke-linejoin="round" stroke-width="10" d="M321.635 452.726C321.126 458.173 321.008 464.057 331.743 473.983C337.402 479.217 348.158 492.39 349.734 506.06C351.147 518.321 346.858 527.988 343.473 531.669C344.725 529.934 353.433 510.864 338.772 490.957C333.728 484.109 326.977 483.64 323.835 482.404L319.198 532.091C318.299 541.731 311.646 546.761 308.431 548.07C283.05 552.03 272.926 541.594 270.905 533.08C268.883 524.565 273.723 513.528 291.956 513.397C306.542 513.293 313.157 522.869 314.642 527.67L321.635 452.726Z"/><path fill="#fff" stroke="#6BBBE9" stroke-linecap="round" stroke-linejoin="round" stroke-width="10" d="M248.198 394.573C249.944 399.758 252.224 405.183 266.063 409.899C273.359 412.385 288.535 420.06 295.524 431.915C301.792 442.547 301.795 453.122 300.195 457.86C300.635 455.766 300.854 434.804 279.376 422.56C271.987 418.347 265.627 420.659 262.253 420.804L278.18 468.097C281.27 477.273 277.23 484.57 274.824 487.071C253.234 500.99 239.746 495.561 234.443 488.599C229.14 481.638 229.084 469.586 245.695 462.068C258.984 456.053 268.916 462.12 272.221 465.906L248.198 394.573Z"/><path stroke="#6BBBE9" stroke-linecap="round" stroke-linejoin="round" stroke-width="10" d="M551 383.926C561.226 387.699 588.143 392.981 614 383.926"/><path stroke="#6BBBE9" stroke-linecap="round" stroke-linejoin="round" stroke-width="10" d="M559 348.926C559 351.092 559 356.326 559 359.926"/><path stroke="#6BBBE9" stroke-linecap="round" stroke-linejoin="round" stroke-width="10" d="M641 348.926C641 351.092 641 356.326 641 359.926"/><path fill="#fff" fill-rule="evenodd" d="M97.0744 246.274L116.941 253.233L113.681 266.357C117.976 269.598 121.507 273.655 124.129 278.226L137.26 276.999L141.167 297.683L129.33 301.089C129.074 304.538 128.364 308.013 127.166 311.436C126.396 313.632 125.456 315.719 124.365 317.687L131.09 327.17L115.13 340.895L107.776 333.807C101.776 336.914 95.0088 338.493 88.1089 338.236L84.1362 346.889L64.2697 339.93L66.5324 330.82C60.9048 326.761 56.5288 321.327 53.7106 315.161L43.6554 316.101L39.7485 295.416L50.5782 292.3C50.9519 289.937 51.5426 287.574 52.362 285.234C53.6098 281.672 55.3073 278.396 57.3676 275.45L50.4235 265.657L66.3831 251.932L75.8259 261.034C80.7645 259.141 86.0874 258.226 91.4905 258.437L97.0744 246.274Z" clip-rule="evenodd"/><path fill="#6BBBE9" d="M116.941 253.233L121.794 254.438C122.416 251.933 121.029 249.367 118.594 248.514L116.941 253.233ZM97.0744 246.274L98.7273 241.555C96.2918 240.702 93.6071 241.843 92.5304 244.188L97.0744 246.274ZM113.681 266.357L108.829 265.151C108.346 267.096 109.07 269.14 110.669 270.347L113.681 266.357ZM124.129 278.226L119.793 280.715C120.768 282.413 122.645 283.387 124.595 283.204L124.129 278.226ZM137.26 276.999L142.173 276.071C141.694 273.535 139.364 271.78 136.795 272.02L137.26 276.999ZM141.167 297.683L142.55 302.488C145.03 301.774 146.559 299.291 146.08 296.755L141.167 297.683ZM129.33 301.089L127.947 296.284C125.937 296.862 124.499 298.631 124.344 300.718L129.33 301.089ZM124.365 317.687L119.992 315.263C119.06 316.945 119.175 319.011 120.287 320.579L124.365 317.687ZM131.09 327.17L134.35 330.961C136.307 329.278 136.661 326.383 135.168 324.278L131.09 327.17ZM115.13 340.895L111.66 344.495C113.518 346.286 116.434 346.369 118.39 344.686L115.13 340.895ZM107.776 333.807L111.246 330.207C109.702 328.719 107.381 328.381 105.477 329.367L107.776 333.807ZM88.1089 338.236L88.2951 333.239C86.275 333.164 84.4083 334.312 83.5649 336.149L88.1089 338.236ZM84.1362 346.889L82.4833 351.608C84.9189 352.461 87.6035 351.32 88.6802 348.975L84.1362 346.889ZM64.2697 339.93L59.4171 338.725C58.7951 341.23 60.1813 343.796 62.6168 344.649L64.2697 339.93ZM66.5324 330.82L71.385 332.025C71.8774 330.042 71.114 327.959 69.4569 326.764L66.5324 330.82ZM53.7106 315.161L58.2582 313.082C57.3742 311.148 55.363 309.984 53.2452 310.182L53.7106 315.161ZM43.6554 316.101L38.7423 317.029C39.2213 319.564 41.5514 321.319 44.1208 321.079L43.6554 316.101ZM39.7485 295.416L38.366 290.611C35.886 291.325 34.3564 293.809 34.8354 296.344L39.7485 295.416ZM50.5782 292.3L51.9608 297.105C53.827 296.568 55.2136 294.999 55.5169 293.081L50.5782 292.3ZM57.3676 275.45L61.4651 278.315C62.6753 276.585 62.6677 274.28 61.4462 272.558L57.3676 275.45ZM50.4235 265.657L47.1633 261.866C45.2067 263.549 44.8521 266.444 46.3449 268.549L50.4235 265.657ZM66.3831 251.932L69.8531 248.332C67.9952 246.541 65.0794 246.458 63.1229 248.141L66.3831 251.932ZM75.8259 261.034L72.3559 264.634C73.7531 265.981 75.8036 266.397 77.6157 265.703L75.8259 261.034ZM91.4905 258.437L91.2951 263.433C93.3184 263.512 95.1897 262.363 96.0345 260.523L91.4905 258.437ZM118.594 248.514L98.7273 241.555L95.4216 250.993L115.288 257.951L118.594 248.514ZM118.534 267.562L121.794 254.438L112.088 252.027L108.829 265.151L118.534 267.562ZM110.669 270.347C114.413 273.174 117.498 276.716 119.793 280.715L128.466 275.737C125.515 270.595 121.539 266.023 116.694 262.366L110.669 270.347ZM124.595 283.204L137.725 281.977L136.795 272.02L123.664 273.248L124.595 283.204ZM132.347 277.927L136.254 298.611L146.08 296.755L142.173 276.071L132.347 277.927ZM139.784 292.878L127.947 296.284L130.713 305.894L142.55 302.488L139.784 292.878ZM124.344 300.718C124.12 303.734 123.499 306.777 122.447 309.783L131.884 313.088C133.23 309.248 134.028 305.342 134.316 301.459L124.344 300.718ZM122.447 309.783C121.771 311.712 120.947 313.541 119.992 315.263L128.739 320.111C129.966 317.897 131.022 315.552 131.884 313.088L122.447 309.783ZM120.287 320.579L127.011 330.062L135.168 324.278L128.444 314.795L120.287 320.579ZM127.829 323.379L111.87 337.104L118.39 344.686L134.35 330.961L127.829 323.379ZM118.6 337.296L111.246 330.207L104.306 337.407L111.66 344.495L118.6 337.296ZM105.477 329.367C100.223 332.087 94.3105 333.463 88.2951 333.239L87.9227 343.232C95.7072 343.522 103.328 341.74 110.075 338.247L105.477 329.367ZM83.5649 336.149L79.5922 344.803L88.6802 348.975L92.6529 340.322L83.5649 336.149ZM85.7891 342.17L65.9226 335.211L62.6168 344.649L82.4833 351.608L85.7891 342.17ZM69.1222 341.135L71.385 332.025L61.6798 329.614L59.4171 338.725L69.1222 341.135ZM69.4569 326.764C64.5511 323.226 60.7256 318.481 58.2582 313.082L49.163 317.239C52.332 324.173 57.2584 330.296 63.6079 334.875L69.4569 326.764ZM53.2452 310.182L43.1901 311.122L44.1208 321.079L54.176 320.139L53.2452 310.182ZM48.5686 315.173L44.6616 294.488L34.8354 296.344L38.7423 317.029L48.5686 315.173ZM41.1311 300.221L51.9608 297.105L49.1957 287.495L38.366 290.611L41.1311 300.221ZM55.5169 293.081C55.8439 291.013 56.3612 288.942 57.0809 286.887L47.6431 283.581C46.7239 286.205 46.06 288.861 45.6396 291.519L55.5169 293.081ZM57.0809 286.887C58.1765 283.759 59.6639 280.891 61.4651 278.315L53.27 272.585C50.9507 275.901 49.0431 279.584 47.6431 283.581L57.0809 286.887ZM61.4462 272.558L54.5022 262.765L46.3449 268.549L53.2889 278.342L61.4462 272.558ZM53.6838 269.448L69.6434 255.723L63.1229 248.141L47.1633 261.866L53.6838 269.448ZM62.9131 255.531L72.3559 264.634L79.2959 257.434L69.8531 248.332L62.9131 255.531ZM77.6157 265.703C81.9363 264.046 86.5846 263.249 91.2951 263.433L91.6859 253.441C85.5902 253.202 79.5927 254.235 74.0361 256.365L77.6157 265.703ZM92.5304 244.188L86.9465 256.351L96.0345 260.523L101.618 248.36L92.5304 244.188Z"/><path fill="#fff" stroke="#6BBBE9" stroke-linecap="round" stroke-linejoin="round" stroke-width="10" d="M101.192 300.289C99.1636 306.08 92.825 309.13 87.0343 307.102C81.2435 305.073 78.1935 298.735 80.2218 292.944C82.2501 287.153 88.5887 284.103 94.3795 286.132C100.17 288.16 103.22 294.498 101.192 300.289Z"/><path fill="#fff" fill-rule="evenodd" d="M159.584 294.44L172.678 292.136L174.937 300.373C178.303 300.832 181.501 301.976 184.357 303.683L191.212 298.95L199.754 309.137L194.286 314.67C195.21 316.649 195.893 318.783 196.29 321.039C196.545 322.486 196.672 323.926 196.679 325.347L203.313 328.493L198.762 340.984L192.521 339.351C190.176 342.917 186.936 345.877 183.055 347.867L183.54 353.861L170.447 356.165L168.879 350.448C164.525 349.951 160.436 348.309 156.978 345.783L151.73 349.407L143.188 339.22L148.191 334.158C147.667 332.741 147.262 331.257 146.991 329.715C146.577 327.366 146.501 325.037 146.726 322.777L139.875 319.528L144.426 307.037L152.441 309.134C154.576 306.566 157.225 304.418 160.266 302.866L159.584 294.44Z" clip-rule="evenodd"/><path fill="#6BBBE9" d="M172.678 292.136L177.5 290.813C176.817 288.324 174.353 286.764 171.811 287.211L172.678 292.136ZM159.584 294.44L158.718 289.516C156.176 289.963 154.393 292.271 154.601 294.843L159.584 294.44ZM174.937 300.373L170.115 301.695C170.645 303.627 172.277 305.056 174.261 305.327L174.937 300.373ZM184.357 303.683L181.792 307.975C183.474 308.979 185.587 308.91 187.198 307.797L184.357 303.683ZM191.212 298.95L195.043 295.737C193.385 293.76 190.494 293.369 188.371 294.835L191.212 298.95ZM199.754 309.137L203.31 312.651C205.124 310.816 205.243 307.901 203.585 305.924L199.754 309.137ZM194.286 314.67L190.729 311.155C189.259 312.643 188.87 314.89 189.755 316.786L194.286 314.67ZM196.679 325.347L191.679 325.372C191.689 327.294 192.8 329.041 194.536 329.864L196.679 325.347ZM203.313 328.493L208.011 330.205C208.894 327.78 207.787 325.081 205.455 323.975L203.313 328.493ZM198.762 340.984L197.496 345.821C199.993 346.474 202.576 345.12 203.46 342.696L198.762 340.984ZM192.521 339.351L193.787 334.514C191.712 333.971 189.523 334.812 188.344 336.603L192.521 339.351ZM183.055 347.867L180.774 343.418C178.975 344.341 177.909 346.256 178.072 348.271L183.055 347.867ZM183.54 353.861L184.407 358.785C186.948 358.338 188.732 356.03 188.524 353.457L183.54 353.861ZM170.447 356.165L165.625 357.487C166.308 359.976 168.772 361.536 171.314 361.089L170.447 356.165ZM168.879 350.448L173.701 349.125C173.161 347.155 171.476 345.712 169.446 345.48L168.879 350.448ZM156.978 345.783L159.928 341.746C158.211 340.491 155.887 340.46 154.137 341.668L156.978 345.783ZM151.73 349.407L147.899 352.619C149.557 354.597 152.448 354.987 154.571 353.521L151.73 349.407ZM143.188 339.22L139.632 335.705C137.818 337.541 137.699 340.455 139.357 342.432L143.188 339.22ZM148.191 334.158L151.747 337.672C153.112 336.291 153.554 334.245 152.88 332.423L148.191 334.158ZM146.726 322.777L151.701 323.272C151.91 321.17 150.776 319.164 148.868 318.259L146.726 322.777ZM139.875 319.528L135.177 317.816C134.294 320.241 135.401 322.939 137.733 324.045L139.875 319.528ZM144.426 307.037L145.692 302.199C143.196 301.546 140.612 302.9 139.729 305.325L144.426 307.037ZM152.441 309.134L151.175 313.971C153.053 314.462 155.045 313.823 156.285 312.33L152.441 309.134ZM160.266 302.866L162.54 307.319C164.343 306.398 165.413 304.481 165.25 302.462L160.266 302.866ZM171.811 287.211L158.718 289.516L160.451 299.364L173.544 297.06L171.811 287.211ZM179.759 299.05L177.5 290.813L167.856 293.458L170.115 301.695L179.759 299.05ZM174.261 305.327C176.945 305.693 179.502 306.606 181.792 307.975L186.922 299.391C183.5 297.346 179.662 295.971 175.612 295.419L174.261 305.327ZM187.198 307.797L194.053 303.064L188.371 294.835L181.516 299.568L187.198 307.797ZM187.381 302.162L195.923 312.349L203.585 305.924L195.043 295.737L187.381 302.162ZM196.198 305.622L190.729 311.155L197.842 318.184L203.31 312.651L196.198 305.622ZM189.755 316.786C190.496 318.371 191.046 320.085 191.366 321.905L201.215 320.172C200.741 317.48 199.924 314.927 198.816 312.554L189.755 316.786ZM191.366 321.905C191.572 323.074 191.673 324.232 191.679 325.372L201.679 325.321C201.67 323.619 201.518 321.898 201.215 320.172L191.366 321.905ZM194.536 329.864L201.17 333.011L205.455 323.975L198.822 320.829L194.536 329.864ZM198.615 326.781L194.064 339.272L203.46 342.696L208.011 330.205L198.615 326.781ZM200.027 336.147L193.787 334.514L191.256 344.188L197.496 345.821L200.027 336.147ZM188.344 336.603C186.461 339.466 183.867 341.832 180.774 343.418L185.337 352.316C190.005 349.922 193.891 346.367 196.698 342.099L188.344 336.603ZM178.072 348.271L178.557 354.264L188.524 353.457L188.039 347.464L178.072 348.271ZM182.674 348.936L169.58 351.24L171.314 361.089L184.407 358.785L182.674 348.936ZM175.269 354.842L173.701 349.125L164.057 351.77L165.625 357.487L175.269 354.842ZM169.446 345.48C165.976 345.084 162.704 343.774 159.928 341.746L154.028 349.82C158.167 352.844 163.074 354.818 168.312 355.416L169.446 345.48ZM154.137 341.668L148.889 345.292L154.571 353.521L159.819 349.897L154.137 341.668ZM155.561 346.194L147.019 336.007L139.357 342.432L147.899 352.619L155.561 346.194ZM146.744 342.734L151.747 337.672L144.634 330.643L139.632 335.705L146.744 342.734ZM152.88 332.423C152.46 331.287 152.134 330.093 151.915 328.848L142.066 330.582C142.39 332.42 142.873 334.195 143.501 335.892L152.88 332.423ZM151.915 328.848C151.581 326.953 151.521 325.082 151.701 323.272L141.75 322.281C141.48 324.991 141.573 327.779 142.066 330.582L151.915 328.848ZM148.868 318.259L142.018 315.01L137.733 324.045L144.583 327.294L148.868 318.259ZM144.573 321.239L149.124 308.748L139.729 305.325L135.177 317.816L144.573 321.239ZM143.161 311.874L151.175 313.971L153.707 304.296L145.692 302.199L143.161 311.874ZM156.285 312.33C157.998 310.272 160.116 308.556 162.54 307.319L157.993 298.412C154.335 300.28 151.155 302.86 148.597 305.937L156.285 312.33ZM154.601 294.843L155.282 303.269L165.25 302.462L164.568 294.037L154.601 294.843Z"/><path fill="#fff" stroke="#6BBBE9" stroke-linecap="round" stroke-linejoin="round" stroke-width="10" d="M176.725 323.242C177.22 326.056 175.34 328.74 172.526 329.235C169.712 329.73 167.029 327.85 166.533 325.036C166.038 322.221 167.918 319.538 170.732 319.043C173.547 318.548 176.23 320.428 176.725 323.242Z"/><path stroke="#6BBBE9" stroke-linecap="round" stroke-linejoin="round" stroke-width="10" d="M1051.58 358.745C1065.07 362.643 1068.57 373.469 1068.63 378.395L1097.43 386.714C1099.15 381.263 1108.42 375.522 1123.98 379.661C1139.55 383.801 1144.63 397.672 1146.19 406.154L1142.56 468.46C1141.46 476.915 1133.3 487.318 1114.2 485.25C1096.91 483.379 1089.69 465.527 1088.18 459.439L1038.66 445.134C1030.97 456.299 1021.72 462.103 1004.16 453.461C991.237 447.1 990.682 431.721 992.722 425.172C998.55 411.686 1011.46 382.222 1016.48 372.251C1022.75 359.787 1034.71 353.872 1051.58 358.745Z"/><path stroke="#6BBBE9" stroke-linecap="round" stroke-linejoin="round" stroke-width="7" d="M1037.81 382.745L1034.05 395.762L1023.07 392.591L1020.32 402.128L1031.29 405.298L1030.62 418.615L1040.78 421.551L1044.38 409.081L1055.44 412.274L1058.19 402.738L1047.14 399.544L1049.05 384.995L1037.81 382.745Z"/><path stroke="#6BBBE9" stroke-linecap="round" stroke-linejoin="round" stroke-width="7" d="M1112.31 416.291C1107.66 413.081 1106.62 407.009 1113.61 403.847C1117.53 403.657 1124.89 404.967 1122.93 411.721C1120.49 420.164 1116.97 419.5 1112.31 416.291Z"/><path stroke="#6BBBE9" stroke-linecap="round" stroke-linejoin="round" stroke-width="7" d="M1093.46 423.899C1088.8 420.69 1087.77 414.617 1094.75 411.455C1098.67 411.266 1106.03 412.575 1104.08 419.33C1101.64 427.772 1098.11 427.109 1093.46 423.899Z"/><path stroke="#6BBBE9" stroke-linecap="round" stroke-linejoin="round" stroke-width="7" d="M1104.82 441.866C1100.17 438.656 1099.13 432.584 1106.12 429.422C1110.04 429.232 1117.4 430.542 1115.45 437.296C1113.01 445.739 1109.48 445.075 1104.82 441.866Z"/><path stroke="#6BBBE9" stroke-linecap="round" stroke-linejoin="round" stroke-width="7" d="M1126.36 435.27C1121.71 432.061 1120.67 425.988 1127.66 422.826C1131.58 422.637 1138.94 423.946 1136.98 430.701C1134.55 439.144 1131.02 438.48 1126.36 435.27Z"/><path fill="#fff" stroke="#6BBBE9" stroke-linecap="round" stroke-linejoin="round" stroke-width="10" d="M427.692 275.966L406.28 132.309L523.918 92.3765L551.979 236.147L427.692 275.966Z"/><path fill="#fff" stroke="#6BBBE9" stroke-linecap="round" stroke-linejoin="round" stroke-width="10" d="M426.906 169.282C424.378 159.861 422.556 153.812 425.526 148.785C426.557 145.014 508.94 113.594 513.098 114.85C517.255 116.107 515.84 118.79 519.23 132.834C520.227 136.966 428.459 175.067 426.906 169.282Z"/><path stroke="#6BBBE9" stroke-linecap="round" stroke-linejoin="round" stroke-width="10" d="M430.688 182.528C450.035 175.583 490.515 160.503 497.659 155.74"/><path stroke="#6BBBE9" stroke-linecap="round" stroke-linejoin="round" stroke-width="10" d="M431.432 204.108C450.779 197.163 491.259 182.082 498.403 177.32"/><path stroke="#6BBBE9" stroke-linecap="round" stroke-linejoin="round" stroke-width="10" d="M434.408 223.455C453.756 216.51 518.791 189.523 525.935 184.761"/><path stroke="#6BBBE9" stroke-linecap="round" stroke-linejoin="round" stroke-width="10" d="M437.385 247.267C456.732 240.322 508.374 220.776 515.517 216.014"/></svg>