<svg xmlns="http://www.w3.org/2000/svg" width="243" height="197" fill="none" viewBox="0 0 243 197"><path fill="#fff" d="M45.1599 152.747L45.1599 65.4015L175.746 65.4015V152.747H45.1599Z"/><path fill="#6BBBE9" fill-rule="evenodd" d="M45.1599 156.747C42.9508 156.747 41.1599 154.957 41.1599 152.747L41.1599 65.4015C41.1599 63.1923 42.9508 61.4015 45.1599 61.4015L175.746 61.4015C177.956 61.4015 179.746 63.1923 179.746 65.4015V152.747C179.746 154.957 177.956 156.747 175.746 156.747H45.1599ZM49.1599 148.747H171.746V69.4015L49.1599 69.4015L49.1599 148.747Z" clip-rule="evenodd"/><path fill="#6BBBE9" fill-rule="evenodd" d="M59.3209 137.181C59.3209 134.972 61.1118 133.181 63.3209 133.181H122.542C124.752 133.181 126.542 134.972 126.542 137.181C126.542 139.39 124.752 141.181 122.542 141.181H63.3209C61.1118 141.181 59.3209 139.39 59.3209 137.181Z" clip-rule="evenodd"/><path fill="#6BBBE9" fill-rule="evenodd" d="M59.3209 124.209C59.3209 122 61.1118 120.209 63.3209 120.209H142.019C144.228 120.209 146.019 122 146.019 124.209C146.019 126.418 144.228 128.209 142.019 128.209H63.3209C61.1118 128.209 59.3209 126.418 59.3209 124.209Z" clip-rule="evenodd"/><path fill="#F5D248" d="M60.7264 77.5089H160.18V114.696H60.7264V77.5089Z"/><path fill="#6BBBE9" fill-rule="evenodd" d="M52.1866 172.206C52.1866 174.415 50.3958 176.206 48.1866 176.206C32.8429 176.206 20.4043 163.767 20.4043 148.424C20.4043 146.214 22.1952 144.424 24.4043 144.424C26.6135 144.424 28.4043 146.214 28.4043 148.424C28.4043 159.349 37.2612 168.206 48.1866 168.206C50.3958 168.206 52.1866 169.997 52.1866 172.206Z" clip-rule="evenodd"/><path fill="#6BBBE9" fill-rule="evenodd" d="M52.619 192.529C52.619 194.738 50.8282 196.529 48.619 196.529C22.0511 196.529 0.513618 174.991 0.513618 148.424C0.513618 146.214 2.30448 144.424 4.51362 144.424C6.72276 144.424 8.51362 146.214 8.51362 148.424C8.51362 170.573 26.4694 188.529 48.619 188.529C50.8282 188.529 52.619 190.32 52.619 192.529Z" clip-rule="evenodd"/><path fill="#6BBBE9" fill-rule="evenodd" d="M168.287 46.3759C168.287 44.1667 170.078 42.3759 172.287 42.3759C187.631 42.3759 200.07 54.8144 200.07 70.1582C200.07 72.3673 198.279 74.1582 196.07 74.1582C193.86 74.1582 192.07 72.3673 192.07 70.1582C192.07 59.2327 183.213 50.3759 172.287 50.3759C170.078 50.3759 168.287 48.585 168.287 46.3759Z" clip-rule="evenodd"/><path fill="#6BBBE9" fill-rule="evenodd" d="M168.287 25.6202C168.287 23.4111 170.078 21.6202 172.287 21.6202C198.855 21.6202 220.393 43.1578 220.393 69.7256C220.393 71.9348 218.602 73.7256 216.393 73.7256C214.183 73.7256 212.393 71.9348 212.393 69.7256C212.393 47.576 194.437 29.6202 172.287 29.6202C170.078 29.6202 168.287 27.8294 168.287 25.6202Z" clip-rule="evenodd"/><path fill="#6BBBE9" fill-rule="evenodd" d="M168.287 4C168.287 1.79086 170.078 0 172.287 0C210.796 0 242.013 31.2173 242.013 69.7257C242.013 71.9348 240.222 73.7257 238.013 73.7257C235.804 73.7257 234.013 71.9348 234.013 69.7257C234.013 35.6355 206.377 8 172.287 8C170.078 8 168.287 6.20914 168.287 4Z" clip-rule="evenodd"/></svg>