<svg xmlns="http://www.w3.org/2000/svg" width="793.95" height="612.33" viewBox="0 0 793.95 612.33"><title>bg</title><g style="opacity:.14"><path d="M140.46,311.11a1.72,1.72,0,0,1-.73,1.12c-.11.07-11.42,7.63-23,15C92.8,342.52,91.13,342.22,90,342c-4.43-.81-11.7-5.83-10.4-12.93.28-1.52.86-4.69,27.51-18.29,12.84-6.55,25.7-12.42,25.83-12.48a1.71,1.71,0,0,1,2.26.83l5.1,10.93A1.75,1.75,0,0,1,140.46,311.11Zm-50,27.51c3.33-.69,25.89-14.93,46.11-28.42l-3.76-8.06C102.76,315.93,83.91,327,83,329.74,82.09,334.66,87.92,338.05,90.49,338.62Z" style="fill:#fff;stroke:#fff;stroke-miterlimit:10;stroke-width:3px"/><path d="M197.75,278.07c-1.27,6.94-4.64,14.27-10.4,22.7-6.13,9-14.89,14.87-26.77,18-10.3,2.73-19.89-1.13-25.66-10.32-2.57-4.08-3.2-9.59-1.71-15.11a20.74,20.74,0,0,1,10-13.18c9.77-5.15,28.83-4.6,33-4.19,6.36.63,19.63-4.22,19.76-4.27a1.71,1.71,0,0,1,2.3,1.69A34.14,34.14,0,0,1,197.75,278.07Zm-61.6,17.8a15.16,15.16,0,0,0,1.66,10.78c5,8,13,11.19,21.89,8.83,11.06-2.93,19.18-8.37,24.82-16.64,5.95-8.71,9.21-16.11,10.12-23-4.38,1.45-13.38,4.12-18.75,3.59s-22.72-.61-31.09,3.81a17.36,17.36,0,0,0-8.29,11Q136.3,295.06,136.15,295.87Z" style="fill:#fff;stroke:#fff;stroke-miterlimit:10;stroke-width:3px"/><path d="M167.7,315.55a1.71,1.71,0,0,1-1.07,1.29,59.41,59.41,0,0,1-6,2c-10.3,2.73-19.89-1.13-25.66-10.32-2.57-4.08-3.2-9.59-1.71-15.11a20.74,20.74,0,0,1,10-13.18,1.7,1.7,0,0,1,2,.27c1.74,1.65,10.45,10.16,10.16,15.28-.14,2.5-1.71,4.19-3.1,5.69-2,2.1-2.77,3.12-1.6,5.37,2.12,4.06,12.23,6.3,15.61,6.76a1.71,1.71,0,0,1,1.47,1.5A1.67,1.67,0,0,1,167.7,315.55Zm-31.55-19.68a15.16,15.16,0,0,0,1.66,10.78c4.94,7.86,12.77,11.1,21.53,8.92-4.43-1.25-9.79-3.48-11.73-7.2-2.34-4.48.24-7.26,2.12-9.28,1.14-1.23,2.12-2.28,2.19-3.55.14-2.42-4.43-8-8.18-11.72a17.8,17.8,0,0,0-7.23,10.43Q136.3,295.06,136.15,295.87Z" style="fill:#fff;stroke:#fff;stroke-miterlimit:10;stroke-width:3px"/><path d="M257.52,182.88c-1.22,0-2.72,0-17-13.49-5.22-4.93-10.27-9.91-12.33-11.95-5.6,1.85-21.65,7-25.16,7-2,0-4.25-1.15-9.69-15-1.91-4.88-3.61-9.82-4.42-12.22-2.23,0-6.52-.15-11.07-.51-12.27-1-15.3-2.76-16.57-4.23a3.63,3.63,0,0,1-.9-2.92h0c.43-3.05,8.31-10.13,23.42-21.07,3.73-2.69,22.52-16.14,26.59-16.14,2.37,0,4.87,1.53,9.32,20.08,1.62,6.75,3,13.56,3.55,16.71,7.11.05,23,.39,26.53,2.52.83.5,3.34,2,7.5,23.56.41,2.14,4,21,2.77,25.45A2.7,2.7,0,0,1,257.52,182.88Zm-28.7-30.17a2.21,2.21,0,0,1,1.56.64c9.76,9.77,20.81,20.19,25.55,23.85a153.45,153.45,0,0,0-2.75-20.1c-2.59-13.69-4.87-20.47-5.78-21.71-2.37-1.12-15.15-1.82-25.94-1.82a2.2,2.2,0,0,1-2.17-1.81c-3-16.88-7.07-32-9.23-34.84-2.53,1-11.37,6.3-23.54,15.1C172.79,122,166.39,127.88,165,129.9c2.48,1.6,13.7,2.92,25.56,2.94a2.2,2.2,0,0,1,2.09,1.52c4.54,14,9,24,10.8,25.68,3.15-.36,16.06-4.35,24.67-7.22A2.09,2.09,0,0,1,228.82,152.71Z" style="fill:#fff;stroke:#fff;stroke-miterlimit:10;stroke-width:4px"/><path d="M699.49,226.59c-.2-1.2-.45-2.68,10.5-19,4-6,8.09-11.76,9.76-14.12-2.74-5.23-10.51-20.2-11.09-23.66-.33-2,.44-4.39,13.22-12,4.5-2.69,9.09-5.18,11.33-6.37-.33-2.21-.92-6.46-1.32-11-1.08-12.26.2-15.55,1.44-17a3.61,3.61,0,0,1,2.73-1.37h0c3.08-.07,11.37,6.53,24.64,19.64,3.27,3.23,19.63,19.55,20.3,23.56.39,2.34-.71,5.06-18.28,12.5-6.38,2.71-12.88,5.15-15.89,6.26,1.12,7,3.4,22.73,1.88,26.58-.35.89-1.42,3.62-22,11.27-2,.76-20.07,7.41-24.64,6.92A2.68,2.68,0,0,1,699.49,226.59Zm25-33.28a2.27,2.27,0,0,1-.38,1.65c-8,11.24-16.49,23.85-19.32,29.13a153,153,0,0,0,19.38-6c13.07-4.81,19.38-8.18,20.46-9.27.71-2.54-.71-15.25-2.48-25.9a2.2,2.2,0,0,1,1.43-2.44c16.15-5.77,30.41-12.24,32.84-14.83-1.37-2.34-8.08-10.18-18.77-20.74-12-11.9-18.95-17.24-21.18-18.28-1.17,2.71-.62,14,1.31,25.69a2.19,2.19,0,0,1-1.16,2.32c-13.06,6.79-22.15,12.85-23.54,14.88.87,3.05,6.93,15.12,11.18,23.14A2.42,2.42,0,0,1,724.52,193.31Z" style="fill:#fff;stroke:#fff;stroke-miterlimit:10;stroke-width:4px"/><path d="M687.63,539.84c1.2.19,2.68.43,18.89-10.62,5.93-4.05,11.7-8.17,14.06-9.86,5.24,2.71,20.26,10.38,23.73,10.93,2,.32,4.38-.46,11.94-13.29,2.67-4.52,5.12-9.12,6.3-11.37,2.21.32,6.47.88,11,1.25,12.26,1,15.54-.3,17-1.55a3.66,3.66,0,0,0,1.35-2.74h0c0-3.08-6.61-11.32-19.8-24.51-3.25-3.25-19.68-19.51-23.69-20.15-2.35-.38-5.05.74-12.39,18.36-2.66,6.4-5.06,12.91-6.15,15.93-7-1.08-22.75-3.25-26.59-1.71-.89.36-3.61,1.45-11.13,22.07-.75,2-7.27,20.12-6.76,24.69A2.68,2.68,0,0,0,687.63,539.84Zm33.11-25.25a2.24,2.24,0,0,0-1.64.39c-11.19,8.1-23.74,16.64-29,19.51A151,151,0,0,1,696,515.08c4.72-13.11,8-19.44,9.14-20.53,2.53-.73,15.25.61,25.9,2.32a2.21,2.21,0,0,0,2.44-1.45c5.67-16.19,12-30.49,14.62-32.94,2.35,1.36,10.23,8,20.85,18.63,12,12,17.37,18.85,18.42,21.07-2.7,1.19-14,.71-25.7-1.15a2.22,2.22,0,0,0-2.31,1.18c-6.7,13.1-12.7,22.23-14.72,23.64-3.06-.85-15.17-6.84-23.22-11A2.05,2.05,0,0,0,720.74,514.59Z" style="fill:#fff;stroke:#fff;stroke-miterlimit:10;stroke-width:4px"/><path d="M527.48,610.83c-14.77,0-26.43-3.49-33.94-5.74l-2.7-.8c-6.51-1.88-15.36-7.51-18.95-14.23a11.37,11.37,0,0,1-1.16-8.87c1.25-3.92,5.18-5.93,8.66-7.7,2.74-1.4,5.58-2.85,6.09-4.72.44-1.64-.73-4-1.8-5.66s-5.08-2.49-8.59-3.16c-3.86-.73-7.87-1.49-10.55-3.73h0c-3-2.51-4.64-5.42-4.86-8.65-.33-4.83,2.3-9.93,8.8-17.05,12.23-13.41,27.6-13.21,39.94-13.07h.89c5.91.07,27.19,1.55,52.78,17.78,21.25,13.48,26,40.14,19.75,51.86-6.38,12-23.34,20.91-44.28,23.18A93.3,93.3,0,0,1,527.48,610.83Zm-23.15-87.68c-10.73,0-22.3,1-31.62,11.23-5.2,5.7-7.52,9.77-7.31,12.8.11,1.64,1,3.16,2.81,4.65h0c1.54,1.28,4.8,1.9,8,2.5,4.88.92,9.92,1.88,12.36,5.7s3.3,7.27,2.48,10.25c-1.17,4.31-5.34,6.43-9,8.31-2.6,1.33-5.28,2.7-5.8,4.34a5.74,5.74,0,0,0,.75,4.43c2.46,4.61,9.27,9.63,15.49,11.43.86.24,1.77.52,2.75.81,9.3,2.78,23.35,7,41.77,5,19.07-2.07,34.33-9.8,39.83-20.17,4.62-8.73,1.39-32.19-17.76-44.34-19.32-12.25-38.38-16.76-49.78-16.89h-.89C507,523.16,505.68,523.15,504.33,523.15Z" style="fill:#fff;stroke:#fff;stroke-miterlimit:10;stroke-width:3px"/><path d="M498.68,553.12c-7.92,0-14.4-5.64-14.49-12.67s6.36-12.94,14.38-13a15.48,15.48,0,0,1,10.16,3.49,12.11,12.11,0,0,1,4.54,9.19c.09,7.08-6.36,12.93-14.38,13Zm.1-20h-.14c-4.86.06-8.78,3.31-8.73,7.24s4,7,8.77,7h.14c4.86-.07,8.77-3.31,8.72-7.24a6.42,6.42,0,0,0-2.48-4.86A9.74,9.74,0,0,0,498.78,533.14Z" style="fill:#fff;stroke:#fff;stroke-miterlimit:10;stroke-width:3px"/><path d="M534.7,557.78A12,12,0,0,1,522.6,546a11.81,11.81,0,0,1,3.45-8.52,12.21,12.21,0,0,1,17.09-.22,11.88,11.88,0,0,1,.22,17,12.11,12.11,0,0,1-8.5,3.6Zm0-18.21h-.08a6.37,6.37,0,0,0-4.51,1.9,6.13,6.13,0,0,0-1.8,4.42,6.33,6.33,0,0,0,6.38,6.16h.08a6.42,6.42,0,0,0,4.51-1.9,6.13,6.13,0,0,0,1.8-4.42h0a6.16,6.16,0,0,0-1.91-4.38A6.43,6.43,0,0,0,534.71,539.57Z" style="fill:#fff;stroke:#fff;stroke-miterlimit:10;stroke-width:3px"/><path d="M555.93,581.22a12.05,12.05,0,0,1-12.1-11.82,11.81,11.81,0,0,1,3.45-8.52,12.12,12.12,0,0,1,8.51-3.6h.15a12.14,12.14,0,0,1,8.44,3.38,11.89,11.89,0,0,1,.21,17,12.11,12.11,0,0,1-8.5,3.6Zm0-18.21h-.08a6.41,6.41,0,0,0-4.51,1.9,6.08,6.08,0,0,0-1.79,4.42,6.31,6.31,0,0,0,6.37,6.16H556a6.42,6.42,0,0,0,4.51-1.9,6.13,6.13,0,0,0,1.8-4.42h0a6.16,6.16,0,0,0-1.91-4.38A6.43,6.43,0,0,0,555.94,563Z" style="fill:#fff;stroke:#fff;stroke-miterlimit:10;stroke-width:3px"/><path d="M529.43,598.49a12,12,0,1,1-.14-23.94h.15a12.05,12.05,0,0,1,12.11,11.81h0a11.82,11.82,0,0,1-3.46,8.52,12.08,12.08,0,0,1-8.5,3.59Zm0-18.22h-.08a6.24,6.24,0,1,0,.07,12.48h.09a6.41,6.41,0,0,0,4.5-1.9,6.13,6.13,0,0,0,1.8-4.42A6.32,6.32,0,0,0,529.44,580.27Z" style="fill:#fff;stroke:#fff;stroke-miterlimit:10;stroke-width:3px"/><path d="M306.64,411.27c-5-3.28-1.24-13.8,3.22-22.7-6-7.6-11.85-17-8.79-21.64,1.25-1.9,4.12-4,15.93-4.8,4.61-.32,9-.34,10.85-.33,14-9.85,23.08-13.56,26.92-11,1.63,1.07,5.3,5.29,4.86,21.37,9.07,7.58,13.91,12.66,14.41,15.08.34,1.61,1,4.59-16.4,16.41.19,5.77-.28,15.94-5.83,17.94-5.27,1.9-15-6.25-21.1-12.1C323.88,411.3,311.05,414.17,306.64,411.27Zm-.47-41.07c-.06,2.24,4.38,9.73,9.57,16.11a3,3,0,0,1,.34,3.29c-3.57,6.83-6.25,14.56-5.87,16.77,2.39.76,11.69-.64,20.54-3.14a3,3,0,0,1,2.93.75c6.46,6.37,13.91,11.85,16.14,11.9,1-.83,2.19-6.46,1.75-13.62a3,3,0,0,1,1.32-2.68c6-4,12.87-9.28,14.87-11.61-1.86-2.34-7.85-7.82-13.09-12.17a3,3,0,0,1-1.08-2.43c.31-7.7-.63-15.8-2-17.46-2.63-.07-12.27,5.11-21.06,11.34a2.94,2.94,0,0,1-1.79.55C318.56,367.62,308.26,368.73,306.17,370.2Z" style="fill:#fff;stroke:#fff;stroke-miterlimit:10;stroke-width:3px"/><path d="M26.55,534.87c-5.17,0-7.44-9.37-8.44-17.91-7.93-2.65-16.61-6.64-16.61-11.45,0-2,1.1-4.82,9.22-11,3.17-2.42,6.3-4.49,7.68-5.39,5.45-13.75,10.23-20.72,14.19-20.72,1.69,0,6.33,1.3,13.64,13.11,10.14,1.18,16.05,2.54,17.56,4.05,1,1,2.86,2.86-4.07,19.62,2.89,4.08,7.36,11.65,4.31,15.72-2.9,3.87-13.8,2.61-21,1.27C39,526.71,31.1,534.87,26.55,534.87ZM6.73,505.45c1,1.64,7.77,4.95,14.55,7.09a2.59,2.59,0,0,1,1.8,2.21c.66,6.63,2.39,13.48,3.72,14.89,2.08-.58,8.13-6,13.33-12a2.61,2.61,0,0,1,2.47-.84c7.68,1.53,15.67,2,17.3.94.32-1.07-1.48-5.7-5.2-10.67a2.6,2.6,0,0,1-.32-2.55c2.43-5.76,4.89-12.8,5.23-15.44-2.45-.81-9.37-1.92-15.21-2.57a2.59,2.59,0,0,1-1.94-1.25c-3.43-5.7-8-11.1-9.72-11.65-1.93,1.2-6.43,9.5-9.83,18.17a2.53,2.53,0,0,1-1,1.25C14.45,497.72,7.54,503.4,6.73,505.45Z" style="fill:#fff;stroke:#fff;stroke-miterlimit:10;stroke-width:3px"/><path d="M585.5,412.88c-6,0-8.61-10.86-9.77-20.75-9.18-3.06-19.23-7.69-19.23-13.25,0-2.28,1.27-5.58,10.68-12.76,3.67-2.81,7.29-5.21,8.88-6.24,6.32-15.93,11.85-24,16.44-24,2,0,7.33,1.51,15.8,15.18,11.74,1.37,18.57,2.94,20.32,4.69,1.17,1.17,3.32,3.31-4.7,22.72,3.33,4.73,8.52,13.49,5,18.2-3.36,4.48-16,3-24.28,1.48C599.92,403.43,590.78,412.88,585.5,412.88ZM562.56,378.8c1.18,1.91,9,5.74,16.84,8.21a3,3,0,0,1,2.08,2.57c.77,7.66,2.78,15.6,4.31,17.24,2.41-.68,9.42-7,15.44-13.91a3,3,0,0,1,2.86-1c8.9,1.78,18.14,2.27,20,1.09.37-1.24-1.72-6.6-6-12.35a3,3,0,0,1-.37-3c2.81-6.66,5.66-14.82,6-17.87-2.83-.94-10.85-2.23-17.61-3a3,3,0,0,1-2.24-1.44c-4-6.61-9.2-12.86-11.26-13.5-2.24,1.39-7.45,11-11.38,21.05a3,3,0,0,1-1.19,1.44C571.5,369.85,563.5,376.43,562.56,378.8Z" style="fill:#fff;stroke:#fff;stroke-miterlimit:10;stroke-width:3px"/><path d="M371.17,77.83c-10.63,0-20.93-3-24.84-4.2C334.87,80.37,324,76.26,319.77,73a3.43,3.43,0,0,1,0-5.44c4.11-3.17,5-5.8,5.17-7.25-9.65-4.54-23.51-17.42-17.18-39.54,2.2-7.67,6.47-13.28,12.68-16.65,9.56-5.19,23.72-5,42.1.66,19.52,6,33.32,18.55,37.84,34.48,3.17,11.19,1.12,22.37-5.51,29.91C389,75.81,380,77.83,371.17,77.83Zm-25.29-11.4a3.33,3.33,0,0,1,1.16.2,88,88,0,0,0,17.62,4c8.23.91,19.26.62,25-6,5.08-5.78,6.59-14.57,4.06-23.5-1.84-6.46-8.75-22.3-33.25-29.8C344,6.26,331.58,5.86,323.7,10.14c-4.6,2.5-7.66,6.59-9.36,12.51C307.6,46.2,328.39,54.37,329.28,54.7a3.45,3.45,0,0,1,2,1.9c.12.29,2.4,6.09-3.5,12.85,3.65,1.28,9.57,2,16.23-2.45A3.45,3.45,0,0,1,345.88,66.43Z" style="fill:#fff;stroke:#fff;stroke-miterlimit:10;stroke-width:.75px"/><path d="M742.87,402.78a6.11,6.11,0,0,1-1.39-.15c-2.64-.66-5.23-4.52-7.71-11.48-2.82,2.43-6.81,4.8-10.69,3.51-2-.66-7.24-2.41-.41-37.41a3,3,0,0,1,.82-1.55c1.91-1.91,4.66-1.8,14.37,4.08a149.28,149.28,0,0,1,15.9,11.1c4,3.27,7.14,6.21,5.18,9.16-1.24,1.86-3.85,3-6.32,3.64,5.49,9.13,4.71,10.68,4.13,11.85C755.54,398,747.75,402.78,742.87,402.78Zm-7.77-20.29a2.93,2.93,0,0,1,.58.06,3,3,0,0,1,2.3,2.09c1.59,5.41,3.94,10.91,5.19,12.18,1.63,0,5.88-2.23,7.7-3.63a83.07,83.07,0,0,0-5.65-10,3,3,0,0,1,2.19-4.6,25.17,25.17,0,0,0,4.9-1.08C747.65,373,733.69,363.7,728,361.23c-2.09,11.61-3.44,24.38-2.44,27.79,1.91-.16,5.3-3.06,7.18-5.4A3,3,0,0,1,735.1,382.49Z" style="fill:#fff;stroke:#fff;stroke-miterlimit:10;stroke-width:.75px"/><path d="M193.87,467.78a6.11,6.11,0,0,1-1.39-.15c-2.64-.66-5.23-4.52-7.71-11.48-2.82,2.43-6.81,4.8-10.69,3.51-2-.66-7.24-2.41-.41-37.41a3,3,0,0,1,.82-1.55c1.91-1.91,4.66-1.8,14.37,4.08a149.28,149.28,0,0,1,15.9,11.1c4,3.27,7.14,6.21,5.18,9.16-1.24,1.86-3.85,3-6.32,3.64,5.49,9.13,4.71,10.68,4.13,11.85C206.54,463,198.75,467.78,193.87,467.78Zm-7.77-20.29a2.93,2.93,0,0,1,.58.06,3,3,0,0,1,2.3,2.09c1.59,5.41,3.94,10.91,5.19,12.18,1.63,0,5.88-2.23,7.7-3.63a83.07,83.07,0,0,0-5.65-10,3,3,0,0,1,2.19-4.6,25.17,25.17,0,0,0,4.9-1.08C198.65,438,184.69,428.7,179,426.23c-2.09,11.61-3.44,24.38-2.44,27.79,1.91-.16,5.3-3.06,7.18-5.4A3,3,0,0,1,186.1,447.49Z" style="fill:#fff;stroke:#fff;stroke-miterlimit:10;stroke-width:.75px"/><path d="M594.54,231.4c-1.37-9.14-6.87-11.27-11-11.89-1-.14-1.91-.21-2.67-.26l-.72-.05c-.5,1.1-1,2.19-1.5,3.24l.62,0,.51,0,.88.07,1.49.11c3.7.36,8,1.59,9.17,9.28.8,5.34-4.12,15.75-11.2,23.68-6.27,7-13,10.95-18.56,10.74a3.55,3.55,0,0,1-3.29-2.11c-1.37-2.69-1.2-7.54.12-13,.34-1.47.77-3,1.28-4.51a29.53,29.53,0,0,1-4,2.18c-.35,1.32-.66,2.61-.9,3.88-1,5.18-.92,9.88.66,13a6.77,6.77,0,0,0,6.07,3.89H562c8.67,0,16.58-7.38,20.56-11.83C590.46,248.87,595.51,237.8,594.54,231.4Z" style="fill:#fff;stroke:#fff;stroke-miterlimit:10;stroke-width:4px"/><path d="M524.68,221.49a73.21,73.21,0,0,0,4.12-6.31,18.55,18.55,0,0,0,2.3-6.88A17,17,0,0,0,524.68,221.49Zm-4.79-31.19c-9.27-2.69-17.4,1-23.14,10.72-4.64,7.82-5.25,24.74-2.66,33.56,1,3.46,2.5,5.7,4.4,6.65a5.13,5.13,0,0,0,2.27.5c3,0,6.75-2.18,10.59-5.43.81-.69,1.63-1.42,2.45-2.2a23.08,23.08,0,0,1-1.57-3c-.85.83-1.69,1.6-2.51,2.31-4.26,3.72-8,5.8-9.77,4.9-.61-.3-1.75-1.3-2.74-4.66-2.59-8.79-1.38-24.72,2.33-31,2.91-4.9,7.63-10,14.7-10a16.33,16.33,0,0,1,3.8.46,21.38,21.38,0,0,1,3.19,1c.57-.93,1.17-1.85,1.79-2.76a4.09,4.09,0,0,0-.42-.2A27.37,27.37,0,0,0,519.89,190.3Z" style="fill:#fff;stroke:#fff;stroke-miterlimit:10;stroke-width:4px"/><path d="M594.3,154.85a.64.64,0,0,1-.06-.16,9.73,9.73,0,0,0-.46-1,13.88,13.88,0,0,0-4.15-5.26l-.34-.24-.35-.23a13.71,13.71,0,0,0-3-1.43,17.7,17.7,0,0,0-6.65-.91l-.85,0-.87.08-.87.12c-.29,0-.6.08-.9.13s-.47.08-.71.14c-.61.11-1.25.25-1.89.42-11,2.8-24.6,11.8-36.53,23.54h0a127.89,127.89,0,0,0-16.81,20.22c-.65.95-1.26,1.92-1.85,2.88l-.16.24c-9.19,14.93-12.27,26.31-9.72,35.81a23.48,23.48,0,0,0,1.56,4.19,24.32,24.32,0,0,0,1.63,2.88,28,28,0,0,0,3.21,4,51.14,51.14,0,0,0,13.15,9.55,35.86,35.86,0,0,0,17,4.58,29.58,29.58,0,0,0,9.1-1.42l.92-.32a30.08,30.08,0,0,0,3.67-1.55c7-3.52,13.26-9.78,18.59-18.68a105.62,105.62,0,0,0,5.17-9.87c.47-1,.93-2,1.39-3.1a174.33,174.33,0,0,0,6.92-18.8l0-.07c.14-.47.27-.92.42-1.39.07-.23.14-.45.21-.7.2-.69.41-1.4.59-2.1.25-.86.48-1.81.75-2.79q1-3.76,1.73-7.4C597.47,170.32,596.66,160.68,594.3,154.85Zm-2,23.53c-.1.77-.21,1.54-.35,2.33s-.23,1.39-.35,2.09c-.05.25-.09.49-.14.74-.13.68-.26,1.37-.41,2.06-.2,1-.4,2-.63,3s-.48,2-.73,3a.43.43,0,0,1,0,.11c-.31,1.21-.62,2.43-1,3.64q-.64,2.38-1.38,4.77a175.7,175.7,0,0,1-7.12,19.12c-.5,1.1-1,2.19-1.5,3.24-1.45,3.05-2.95,5.88-4.45,8.37-4.28,7.13-9.19,12.44-14.53,15.84a29.53,29.53,0,0,1-4,2.18c-8.19,3.65-17.21,3.12-26.39-1.83-7.44-4-12.48-8.2-15.44-12.9a23.08,23.08,0,0,1-1.57-3,21.85,21.85,0,0,1-.94-2.72c-2.27-8.47.79-19.35,9.36-33.27.18-.31.37-.6.58-.91.57-.93,1.17-1.85,1.79-2.76a127.2,127.2,0,0,1,15.78-18.93q1.89-1.87,3.84-3.64c.69-.64,1.38-1.25,2.07-1.85s1.36-1.17,2-1.74c9.62-8,19.66-13.89,28-15.8a23.7,23.7,0,0,1,5.61-.66,15.13,15.13,0,0,1,1.68.11,11.84,11.84,0,0,1,5.1,1.73c.19.13.38.26.58.42a2.69,2.69,0,0,1,.28.22c.17.14.34.3.51.46s.42.44.63.67a13.38,13.38,0,0,1,1.1,1.58c.17.29.32.59.48.91a20.06,20.06,0,0,1,1.48,4.34c.09.42.18.84.26,1.27a38.63,38.63,0,0,1,.49,4.19h0c0,.41,0,.8,0,1.22a1.67,1.67,0,0,1,0,.31c0,.5,0,1,0,1.51v.2c0,.5,0,1,0,1.54,0,1.22-.09,2.49-.2,3.8,0,.44-.07.88-.13,1.33C592.6,175.87,592.45,177.11,592.27,178.38Z" style="fill:#fff;stroke:#fff;stroke-miterlimit:10;stroke-width:4px"/><path d="M545.27,172.06a47,47,0,0,0-6.47.46A127.2,127.2,0,0,0,523,191.45c-.62.91-1.22,1.83-1.79,2.76-.21.31-.4.6-.58.91-8.57,13.92-11.63,24.8-9.36,33.27a21.85,21.85,0,0,0,.94,2.72,23.08,23.08,0,0,0,1.57,3c3,4.7,8,8.9,15.44,12.9,9.18,4.95,18.2,5.48,26.39,1.83a29.53,29.53,0,0,0,4-2.18c5.34-3.4,10.25-8.71,14.53-15.84,1.5-2.49,3-5.32,4.45-8.37.5-1.05,1-2.14,1.5-3.24a175.7,175.7,0,0,0,7.12-19.12A45.3,45.3,0,0,0,545.27,172.06Zm-3.53,66.63a17.09,17.09,0,0,1-17.06-17.07v-.13a17.06,17.06,0,1,1,17.06,17.2Z" style="fill:#34a2df;stroke:#fff;stroke-miterlimit:10;stroke-width:4px"/><path d="M541.74,204.56a17.09,17.09,0,0,0-17.06,16.93v.13a17.06,17.06,0,1,0,17.06-17.06Zm0,30.88a13.81,13.81,0,1,1,13.82-13.82A13.83,13.83,0,0,1,541.74,235.44Z" style="fill:#fff;stroke:#fff;stroke-miterlimit:10;stroke-width:4px"/><path d="M594.3,154.85a.64.64,0,0,1-.06-.16c-.15-.35-.3-.7-.46-1a13.88,13.88,0,0,0-4.15-5.26l-.34-.24-.35-.23a13.71,13.71,0,0,0-3-1.43,18.35,18.35,0,0,0-6.65-.91l-.85,0-.87.08-.87.12c-.29,0-.6.08-.9.13s-.47.08-.71.14c-.61.11-1.25.25-1.89.42a47,47,0,0,0-8.24,3c-9,4.12-18.93,11.34-28.08,20.32a1.64,1.64,0,0,0-.21.25h0a1.63,1.63,0,0,0,1.6,2.51l.5-.07a47,47,0,0,1,6.47-.46,45.3,45.3,0,0,1,42,28l.22.52a1.61,1.61,0,0,0,1.51,1h.06a1.6,1.6,0,0,0,1.4-.91l0-.07a.52.52,0,0,0,.06-.16c.11-.38.24-.79.36-1.23.07-.23.14-.45.21-.7.19-.65.38-1.35.59-2.1s.48-1.81.75-2.79C595.23,182.81,598.48,165.4,594.3,154.85ZM593.08,168c0,.34,0,.67,0,1a5.21,5.21,0,0,1,0,.55c0,1.22-.09,2.49-.2,3.8,0,.44-.07.88-.13,1.33-.11,1.22-.26,2.46-.44,3.73-.1.77-.21,1.54-.35,2.33s-.23,1.39-.35,2.09c-.05.25-.09.49-.14.74-.12.68-.26,1.36-.41,2.06-.19,1-.4,2-.63,3s-.47,2-.73,3a.43.43,0,0,1,0,.11c-.29,1.22-.62,2.43-1,3.67,0,0,0,0,0,0a48.52,48.52,0,0,0-43.39-26.5c-.87,0-1.76,0-2.63.07.69-.64,1.38-1.25,2.07-1.85,14.18-12.46,28.21-19.17,37.37-18.09a11.84,11.84,0,0,1,5.1,1.73,4.75,4.75,0,0,1,.58.42,2.69,2.69,0,0,1,.28.22c.17.14.34.3.51.46s.42.43.63.67a10.57,10.57,0,0,1,1.1,1.58,7.9,7.9,0,0,1,.48.91,18.49,18.49,0,0,1,1.48,4.34c.1.42.19.84.26,1.27a34.92,34.92,0,0,1,.49,4.19h0c0,.41,0,.82,0,1.22a1.67,1.67,0,0,1,0,.31c0,.51,0,1,0,1.51Z" style="fill:#fff;stroke:#fff;stroke-miterlimit:10;stroke-width:4px"/><path d="M513.67,290.88l-.25,0a2.78,2.78,0,0,1-2.06-1.19c-1-1.48-.44-3.61.21-6.07.52-1.93,1.29-4.84.31-5.24-.72-.3-1.18-.32-2.41,2.64-.58,1.38-1.07,2.58-2.29,2.92a2.15,2.15,0,0,1-1.86-.38c-3.25-2.42-2.17-11.81-.69-19.27,1.23-6.16,4.77-9.16,7.52-10.59a13.71,13.71,0,0,1,11.43-.69h0c9.71,4.29,10,11.42,8.63,16.64-1.69,6.21-6.38,11.8-9,14.57C522.1,285.34,516.67,290.88,513.67,290.88ZM511.31,275a4.77,4.77,0,0,1,1.81.39c3.61,1.5,2.45,5.88,1.59,9.08a19.69,19.69,0,0,0-.65,3.07c2.84-1.28,14.11-11.1,15.4-20.6.67-4.93-1.68-8.5-7.19-10.94h0a10.56,10.56,0,0,0-8.62.6c-2.12,1.11-4.86,3.45-5.83,8.35-1.58,7.93-1.54,12.29-1.17,14.4C507.36,277.67,508.71,275,511.31,275Z" style="fill:#fff;stroke:#fff;stroke-miterlimit:10;stroke-width:2px"/><path d="M517.91,274.27a4.15,4.15,0,0,1-1.24-.19,5,5,0,0,1-3.3-3.95c-.87-3.83.74-9.22,3.52-11.78A5.38,5.38,0,0,1,522.3,257h0c3.22,1,2.61,7.23,1.47,10.89C522.5,272,520.36,274.27,517.91,274.27ZM520.7,260a2.37,2.37,0,0,0-1.61.75c-1.92,1.76-3.16,6-2.55,8.66.2.88.56,1.41,1.07,1.56s1.13-.23,1.77-1.18a14.66,14.66,0,0,0,1.93-5.77,8,8,0,0,0-.17-4A1.51,1.51,0,0,0,520.7,260Z" style="fill:#fff;stroke:#fff;stroke-miterlimit:10;stroke-width:.75px"/><path d="M100.33,75c-8.36-4-13.2-.58-16,2.5-.68.75-1.24,1.46-1.7,2.07-.17.2-.31.39-.46.57.64,1,1.26,2,1.86,3,.1-.19.21-.37.32-.54l.31-.41.54-.69c.29-.37.61-.78.93-1.17,2.36-2.87,5.78-5.77,12.81-2.44,4.88,2.32,10.78,12.2,13.41,22.5,2.33,9.13,1.81,16.94-1.43,21.4a3.56,3.56,0,0,1-3.59,1.55c-3-.36-6.93-3.21-10.76-7.37-1-1.1-2-2.3-3-3.57a28.31,28.31,0,0,1-.45,4.57c.9,1,1.8,2,2.72,2.91,3.76,3.7,7.69,6.28,11.13,6.69a6.78,6.78,0,0,0,6.62-2.87l.3-.45c4.84-7.2,3.13-17.87,1.65-23.67C112.55,88.15,106.18,77.78,100.33,75Z" style="fill:#fff;stroke:#fff;stroke-miterlimit:10;stroke-width:4px"/><path d="M53.14,127.48a74.08,74.08,0,0,0-2.94-6.94,18.54,18.54,0,0,0-4.42-5.75A17,17,0,0,0,53.14,127.48ZM24.58,114.06c-7.4,6.19-8.84,15-4,25.19,3.9,8.21,17.62,18.15,26.38,20.92,3.44,1.08,6.12,1.1,8,.05a5.15,5.15,0,0,0,1.68-1.61c1.68-2.49,2-6.81,1.4-11.81-.12-1.06-.27-2.15-.46-3.26a23.34,23.34,0,0,1-3.36-.37c.21,1.17.39,2.3.52,3.37.71,5.62.36,9.87-1.38,10.85-.59.33-2.06.73-5.4-.33-8.74-2.75-21.29-12.63-24.42-19.21-2.44-5.15-4-11.89-.07-17.76a16.53,16.53,0,0,1,2.51-2.89,20.4,20.4,0,0,1,2.63-2.07q-.67-1.48-1.29-3a3.26,3.26,0,0,0-.4.24A27,27,0,0,0,24.58,114.06Z" style="fill:#fff;stroke:#fff;stroke-miterlimit:10;stroke-width:4px"/><path d="M36.65,32.52a.43.43,0,0,1-.17,0c-.38-.08-.75-.14-1.1-.19a14,14,0,0,0-6.68.52l-.38.15-.4.16a13.78,13.78,0,0,0-2.84,1.66,17.76,17.76,0,0,0-4.46,5c-.15.24-.28.49-.43.73l-.42.76-.39.79c-.14.26-.27.54-.39.82s-.2.44-.28.67c-.25.57-.49,1.18-.71,1.81-3.83,10.72-3.93,27-.83,43.44v0a128.81,128.81,0,0,0,7.41,25.23c.43,1.06.89,2.11,1.36,3.14a2,2,0,0,0,.11.26c7.27,16,15,24.86,24.3,28a23.16,23.16,0,0,0,4.35,1,23.83,23.83,0,0,0,3.3.26,28.69,28.69,0,0,0,5.13-.42,51.42,51.42,0,0,0,15.26-5.59,35.83,35.83,0,0,0,13.28-11.57,29.53,29.53,0,0,0,3.89-8.34c.09-.31.18-.62.25-.94a29.69,29.69,0,0,0,.76-3.91c1-7.79-.72-16.46-5.13-25.85a107.88,107.88,0,0,0-5.31-9.79c-.58-1-1.18-1.92-1.8-2.88A171.17,171.17,0,0,0,72.58,61.28l0-.07-.92-1.12c-.15-.19-.3-.37-.47-.56-.46-.56-.93-1.12-1.41-1.66s-1.23-1.42-1.9-2.18c-1.71-1.95-3.44-3.81-5.17-5.57C51.26,38.52,42.81,33.81,36.65,32.52Zm18.4,14.81c.58.51,1.16,1,1.74,1.59s1,1,1.54,1.46l.53.52c.49.49,1,1,1.49,1.49.7.71,1.4,1.43,2.1,2.17s1.39,1.51,2.09,2.28l.08.09c.82.92,1.66,1.87,2.48,2.84q1.61,1.86,3.18,3.8A174,174,0,0,1,82.17,80.15c.64,1,1.26,2,1.86,3,1.73,2.91,3.23,5.73,4.47,8.36,3.53,7.52,5.2,14.56,5,20.9a28.31,28.31,0,0,1-.45,4.57c-1.53,8.84-7,16-16.23,20.89-7.48,3.94-13.77,5.78-19.32,5.62a23.34,23.34,0,0,1-3.36-.37,19.32,19.32,0,0,1-2.78-.74C43.11,139.6,35.78,131,29,116.11c-.16-.32-.3-.64-.44-1q-.67-1.48-1.29-3a126.9,126.9,0,0,1-6.91-23.66c-.33-1.74-.63-3.48-.88-5.21-.15-.93-.27-1.85-.38-2.76s-.21-1.77-.31-2.65c-1.31-12.48-.57-24.07,2.52-32.09a24.36,24.36,0,0,1,2.58-5c.33-.47.67-.92,1-1.34a12,12,0,0,1,4.28-3.26,5.84,5.84,0,0,1,.67-.24,1.7,1.7,0,0,1,.34-.12l.67-.16.9-.15a12.36,12.36,0,0,1,1.93,0c.34,0,.67.05,1,.1a20,20,0,0,1,4.43,1.2l1.2.49a39.55,39.55,0,0,1,3.75,1.93h0l1,.63.26.16c.42.27.84.54,1.26.83l.17.11c.42.28.83.57,1.25.88,1,.71,2,1.47,3,2.29.35.28.7.55,1.05.85C53.15,45.65,54.09,46.47,55.05,47.33Z" style="fill:#fff;stroke:#fff;stroke-miterlimit:10;stroke-width:4px"/><path d="M23.59,82.82a45.15,45.15,0,0,0-3.22,5.62,126.9,126.9,0,0,0,6.91,23.66q.62,1.55,1.29,3c.14.34.28.66.44,1C35.78,131,43.11,139.6,51.4,142.43a19.32,19.32,0,0,0,2.78.74,23.34,23.34,0,0,0,3.36.37c5.55.16,11.84-1.68,19.32-5.62,9.22-4.86,14.7-12,16.23-20.89a28.31,28.31,0,0,0,.45-4.57c.16-6.34-1.51-13.38-5-20.9-1.24-2.63-2.74-5.45-4.47-8.36-.6-1-1.22-2-1.86-3A174,174,0,0,0,70.28,63.57,45.3,45.3,0,0,0,23.59,82.82ZM76.93,122.9a17.08,17.08,0,0,1-23.68,4.65l-.11-.07a17.07,17.07,0,1,1,23.79-4.58Z" style="fill:#34a2df;stroke:#fff;stroke-miterlimit:10;stroke-width:4px"/><path d="M48.6,103.87a17.12,17.12,0,0,0,4.54,23.61l.11.07a17.06,17.06,0,1,0-4.65-23.68Zm25.64,17.22a13.81,13.81,0,1,1-3.77-19.17A13.84,13.84,0,0,1,74.24,121.09Z" style="fill:#fff;stroke:#fff;stroke-miterlimit:10;stroke-width:4px"/><path d="M36.65,32.52a.43.43,0,0,1-.17,0c-.37-.07-.74-.14-1.1-.19a14,14,0,0,0-6.68.52l-.38.15-.4.16a13.78,13.78,0,0,0-2.84,1.66,18.36,18.36,0,0,0-4.46,5c-.15.24-.28.49-.43.73l-.42.76-.39.79c-.14.26-.27.54-.39.82s-.2.44-.28.67c-.25.57-.49,1.18-.71,1.81a46.56,46.56,0,0,0-2.13,8.49c-1.57,9.73-1.14,22,1.21,34.64a1.58,1.58,0,0,0,.09.31v0a1.64,1.64,0,0,0,3,.07c.07-.16.14-.3.22-.46A45.51,45.51,0,0,1,70.28,63.57l.55.11A1.6,1.6,0,0,0,72.52,63l0-.06a1.58,1.58,0,0,0,0-1.66l0-.07a.71.71,0,0,0-.1-.14l-.82-1c-.15-.19-.3-.37-.47-.56-.43-.52-.9-1.08-1.41-1.66s-1.23-1.42-1.9-2.18C60.38,47.34,47.74,34.94,36.65,32.52Zm10.22,8.34c.28.19.56.37.81.56a5,5,0,0,1,.44.32c1,.71,2,1.47,3,2.29.35.28.7.55,1.05.85.94.77,1.88,1.59,2.84,2.45.58.51,1.16,1,1.74,1.59s1,1,1.54,1.46l.53.52c.5.48,1,1,1.49,1.49.69.7,1.39,1.43,2.1,2.17s1.39,1.5,2.09,2.28l.08.09c.84.92,1.66,1.87,2.5,2.84,0,0,0,0,0,0A48.52,48.52,0,0,0,20.9,81c-.49.72-1,1.47-1.41,2.22-.15-.93-.27-1.85-.38-2.76-2.43-18.71-.19-34.1,5.82-41.11a12,12,0,0,1,4.28-3.26,4.12,4.12,0,0,1,.67-.24,1.7,1.7,0,0,1,.34-.12l.67-.16a8.44,8.44,0,0,1,.9-.15,10.35,10.35,0,0,1,1.93,0,8.59,8.59,0,0,1,1,.1,18.5,18.5,0,0,1,4.43,1.2c.41.15.81.31,1.2.49a35.82,35.82,0,0,1,3.75,1.93h0l1,.63.26.16,1.26.83Z" style="fill:#fff;stroke:#fff;stroke-miterlimit:10;stroke-width:4px"/><path d="M104.59,175.31a1.49,1.49,0,0,1-.15.2,2.75,2.75,0,0,1-2.14,1c-1.79,0-3.24-1.64-4.92-3.56-1.31-1.5-3.29-3.76-4.18-3.17-.65.42-.92.8.85,3.47.83,1.25,1.55,2.33,1.15,3.52a2.13,2.13,0,0,1-1.36,1.34c-3.81,1.35-11-4.79-16.37-10.18-4.43-4.45-5-9.06-4.6-12.14A13.78,13.78,0,0,1,78.68,146h0c9-5.66,15.07-2,18.62,2.12,4.21,4.87,6.23,11.87,7.06,15.62C104.7,165.22,106.27,172.82,104.59,175.31Zm-14.53-6.92a4.86,4.86,0,0,1,1.34-1.28c3.26-2.16,6.25,1.25,8.43,3.74A20.42,20.42,0,0,0,102,173.1c.54-3.07-1.34-17.9-8.5-24.27-3.72-3.3-8-3.35-13.09-.13h0a10.51,10.51,0,0,0-4.31,7.49c-.27,2.38.15,5.95,3.68,9.49,5.7,5.74,9.34,8.13,11.3,9C90.11,173.18,88.62,170.55,90.06,168.39Z" style="fill:#fff;stroke:#fff;stroke-miterlimit:10;stroke-width:2px"/><path d="M93.18,162.53a4.37,4.37,0,0,1-.85.93,5,5,0,0,1-5.12.53c-3.67-1.42-7.25-5.76-7.81-9.49a5.34,5.34,0,0,1,1.89-5.24h0c2.66-2.1,7.46,1.86,9.86,4.85C93.84,157.45,94.54,160.5,93.18,162.53ZM82.89,152.25a2.39,2.39,0,0,0-.28,1.76c.39,2.58,3.19,6,5.77,6.94a1.85,1.85,0,0,0,1.89,0c.44-.35.44-1.07,0-2.13A14.85,14.85,0,0,0,86.57,154a8,8,0,0,0-3.39-2.07A1.9,1.9,0,0,0,82.89,152.25Z" style="fill:#fff;stroke:#fff;stroke-miterlimit:10;stroke-width:.75px"/></g></svg>