<svg xmlns="http://www.w3.org/2000/svg" width="1000" height="565" fill="none" viewBox="0 0 1000 565"><path fill="#fff" stroke="#6BBBE9" stroke-linecap="round" stroke-linejoin="round" stroke-width="5" d="M149 460.5V64H850V460.5H149Z" opacity=".8"/><path fill="#fff" stroke="#6BBBE9" stroke-linecap="round" stroke-linejoin="round" stroke-width="6" d="M147 511.5C147 507.1 151.667 506.334 154 506.5H486.5C494.9 506.5 496.333 509.834 496 511.5V552C496 560.8 489.667 562 486.5 561.5H154C148.4 561.5 147 557.833 147 556V511.5Z"/><path fill="#fff" stroke="#6BBBE9" stroke-linecap="round" stroke-linejoin="round" stroke-width="6" d="M568 8.4635C568 4.55181 569.818 3.87023 570.727 4.0184H700.281C703.554 4.0184 704.113 6.9818 703.983 8.4635V44.4686C703.983 52.292 701.515 53.3588 700.281 52.9143H570.727C568.545 52.9143 568 49.6546 568 48.0247V8.4635Z"/><path fill="#F1F1F1" stroke="#CECECE" stroke-linecap="round" stroke-linejoin="round" stroke-width="4" d="M181.999 149.09H182H515C523.712 149.09 528.955 154.5 528.955 170.862V378.5C528.955 387.5 518.284 390.758 515 388.581H174.26C168.452 388.581 166.5 386.483 166.5 378.5C166.5 321.894 167 177.66 167 158.5C167 149.09 172.5 149.09 181.999 149.09Z"/><path fill="#6BBBE9" stroke="#6BBBE9" stroke-linecap="round" stroke-linejoin="round" stroke-width="6" d="M504 511.021C504 506.621 508.667 505.854 511 506.021H843.5C851.9 506.021 853.333 509.354 853 511.021V551.521C853 560.321 846.667 561.521 843.5 561.021H511C505.4 561.021 504 557.354 504 555.521V511.021Z"/><path fill="#6BBBE9" stroke="#6BBBE9" stroke-linecap="round" stroke-linejoin="round" stroke-width="6" d="M713 8.4635C713 4.55181 714.872 3.87023 715.808 4.0184H849.172C852.541 4.0184 853.116 6.9818 852.983 8.4635V44.4686C852.983 52.292 850.442 53.3588 849.172 52.9143H715.808C713.562 52.9143 713 49.6546 713 48.0247V8.4635Z"/><path stroke="#FFD943" stroke-linecap="round" stroke-linejoin="round" stroke-width="8" d="M161.5 124H837"/><path stroke="#707070" stroke-linecap="round" stroke-linejoin="round" stroke-width="21" d="M246 102H524"/><path stroke="#707070" stroke-linecap="round" stroke-linejoin="round" stroke-width="21" d="M162 29L385 29"/><path stroke="#A0A0A0" stroke-linecap="round" stroke-linejoin="round" stroke-width="14" d="M189 174H308"/><path stroke="#A0A0A0" stroke-linecap="round" stroke-linejoin="round" stroke-width="14" d="M364 208H438"/><path stroke="#A0A0A0" stroke-linecap="round" stroke-linejoin="round" stroke-width="14" d="M189 208H336"/><path stroke="#A0A0A0" stroke-linecap="round" stroke-linejoin="round" stroke-width="14" d="M290 243H437"/><path stroke="#A0A0A0" stroke-linecap="round" stroke-linejoin="round" stroke-width="14" d="M189 281H336"/><path stroke="#A0A0A0" stroke-linecap="round" stroke-linejoin="round" stroke-width="14" d="M189 243H263"/><path stroke="#A0A0A0" stroke-linecap="round" stroke-linejoin="round" stroke-width="14" d="M363 281H471"/><path stroke="#707070" stroke-linecap="round" stroke-linejoin="round" stroke-width="21" d="M189 102H209"/><path fill="#FFD943" stroke="#CECECE" stroke-linecap="round" stroke-linejoin="round" stroke-width="5" d="M554.5 231.5C550.5 231.5 549.167 227.5 549 225.5C548.5 219 547.8 205 549 201C550.5 196 562 190 582 188.5C598 187.3 610 195 614 199C662.5 199.333 761.1 199.8 767.5 199C773.9 198.2 774.5 202.667 774 205V225.5C774 231.5 769.667 232 767.5 231.5H630.5H554.5Z"/><path fill="#FFD943" stroke="#CECECE" stroke-linecap="round" stroke-linejoin="round" stroke-width="5" d="M581.163 332.125C577.163 332.125 575.829 328.125 575.663 326.125C575.163 319.625 574.463 305.625 575.663 301.625C577.163 296.625 588.663 290.626 608.663 289.126C624.663 287.926 636.663 295.625 640.663 299.625C689.163 299.959 787.763 300.425 794.163 299.625C800.563 298.825 801.163 303.292 800.663 305.625V326.125C800.663 332.125 796.329 332.625 794.163 332.125H657.163H581.163Z"/><path fill="#6BBBE9" stroke="#CECECE" stroke-linecap="round" stroke-linejoin="round" stroke-width="5" d="M557 264C555 264 550.6 263.5 549 261.5V236C549 232.4 551 232.167 552 232.5H708.5V258.5C708.5 262.9 705.167 264 703.5 264H579C575 264 570.5 268.5 565 268.5C560.6 268.5 557.833 265.5 557 264Z"/><path fill="#6BBBE9" stroke="#CECECE" stroke-linecap="round" stroke-linejoin="round" stroke-width="5" d="M583.663 364.626C581.663 364.626 577.263 364.126 575.663 362.126V336.626C575.663 333.026 577.663 332.792 578.663 333.126H735.163V359.126C735.163 363.526 731.829 364.626 730.163 364.626H605.663C601.663 364.626 597.163 369.126 591.663 369.126C587.263 369.126 584.496 366.126 583.663 364.626Z"/></svg>