<svg xmlns="http://www.w3.org/2000/svg" viewBox="0 0 1409.67 264.27"><title>logo_yoko_english</title><path d="M5.69,175.88H334a0,0,0,0,1,0,0v61.42a21.28,21.28,0,0,1-21.28,21.28H27A21.28,21.28,0,0,1,5.69,237.31V175.88a0,0,0,0,1,0,0Z" style="fill:#ffda42"/><path d="M321.51,264.27H18.16A18.18,18.18,0,0,1,0,246.11V175.88a5.68,5.68,0,0,1,5.69-5.68H334a5.68,5.68,0,0,1,5.68,5.68v70.23A18.17,18.17,0,0,1,321.51,264.27ZM11.37,181.57v64.54a6.8,6.8,0,0,0,6.79,6.79H321.51a6.79,6.79,0,0,0,6.79-6.79V181.57Z" style="fill:#4d4d4d"/><path d="M156.6,81.36v-.22a75.46,75.46,0,0,0-150.91,0v.22h0v94.88h37.5v33.53h53V176.24H334V98.77a17.42,17.42,0,0,0-17.41-17.41Z" style="fill:#62d463"/><path d="M96.15,215.46h-53a5.68,5.68,0,0,1-5.68-5.69V181.92H5.69A5.68,5.68,0,0,1,0,176.24V81.14A81.14,81.14,0,0,1,138.52,23.77a80.56,80.56,0,0,1,23.59,51.91H316.58a23.12,23.12,0,0,1,23.09,23.09v77.47a5.68,5.68,0,0,1-5.68,5.68H101.83v27.85A5.68,5.68,0,0,1,96.15,215.46ZM48.88,204.08H90.46V176.24a5.69,5.69,0,0,1,5.69-5.69H328.3V98.77a11.74,11.74,0,0,0-11.72-11.72h-160a5.68,5.68,0,0,1-5.69-5.7v-.2a69.77,69.77,0,1,0-139.54,0v.21a1.21,1.21,0,0,1,0,.19v89H43.19a5.68,5.68,0,0,1,5.69,5.69Z" style="fill:#4d4d4d"/><circle cx="81.36" cy="81.14" r="25.38" style="fill:#4d4d4d"/><path d="M81.36,110.31a29.17,29.17,0,1,1,29.17-29.17A29.2,29.2,0,0,1,81.36,110.31Zm0-50.75A21.59,21.59,0,1,0,103,81.14,21.6,21.6,0,0,0,81.36,59.56Z" style="fill:#4d4d4d"/><circle cx="88.65" cy="74.68" r="11.43" style="fill:#fff"/><path d="M441.73,233.2a13.56,13.56,0,0,1-13.31-13.3V76.08a13.56,13.56,0,0,1,13.31-13.31H455a19.45,19.45,0,0,1,18.21,12.14l36.19,88a.2.2,0,0,0,.23.23c.16,0,.24-.07.24-.23l36.18-88A19.48,19.48,0,0,1,564.3,62.77h14.24a13.54,13.54,0,0,1,13.3,13.31V219.9a13.54,13.54,0,0,1-13.3,13.3H567.33a12.39,12.39,0,0,1-9.22-4,12.93,12.93,0,0,1-3.85-9.33V129.08a.21.21,0,0,0-.24-.24c-.31,0-.46.08-.46.24l-22.42,53a19.11,19.11,0,0,1-7.35,8.88,19.91,19.91,0,0,1-11.09,3.26h-6.07A19.86,19.86,0,0,1,495.54,191a19,19,0,0,1-7.35-8.88l-22.42-53c0-.16-.15-.24-.46-.24a.21.21,0,0,0-.24.24V219.9a12.93,12.93,0,0,1-3.85,9.33,12.39,12.39,0,0,1-9.22,4Z" style="fill:#4d4d4d"/><path d="M682.89,235.54q-31.74,0-48.91-16.11T616.82,172.5q0-30.58,15.29-46.81t44.25-16.22q55.56,0,56.5,60.7a12.2,12.2,0,0,1-4.32,9.45,14.5,14.5,0,0,1-9.93,3.86H656.28c-1.56,0-2.18.7-1.87,2.1q1.86,12.84,9.92,18.32t24.17,5.49a93.34,93.34,0,0,0,22.64-3,9.84,9.84,0,0,1,8.76,1.87,9.63,9.63,0,0,1,3.85,7.94v.47a17.21,17.21,0,0,1-3.62,10.62,14.14,14.14,0,0,1-9.22,5.72A150.3,150.3,0,0,1,682.89,235.54Zm-5.83-100.63q-10.51,0-15.88,5.49t-6.77,18.79c0,1.25.54,1.87,1.64,1.87H695.5a1.86,1.86,0,0,0,2.1-2.1Q696.67,134.92,677.06,134.91Z" style="fill:#4d4d4d"/><path d="M770.91,233.2a12.39,12.39,0,0,1-9.22-4,12.93,12.93,0,0,1-3.85-9.33V71.41a13,13,0,0,1,3.85-9.34,12.42,12.42,0,0,1,9.22-4h11.44a12.42,12.42,0,0,1,9.22,4,13,13,0,0,1,3.85,9.34v86.15c0,.16.08.23.24.23l.46-.23,29.19-35.49a26.55,26.55,0,0,1,21.48-10.27H863.6a5.78,5.78,0,0,1,5.48,3.5,5.54,5.54,0,0,1-.81,6.54l-39.93,46.93a2.25,2.25,0,0,0,0,3l40.39,51.13a6.14,6.14,0,0,1,.58,6.77,5.92,5.92,0,0,1-5.71,3.5H846.79a25.69,25.69,0,0,1-21.25-10.5l-29.42-38.29a.68.68,0,0,0-.46-.23.21.21,0,0,0-.24.23V219.9a12.93,12.93,0,0,1-3.85,9.33,12.39,12.39,0,0,1-9.22,4Z" style="fill:#4d4d4d"/><path d="M931.77,235.54q-20.55,0-29.77-11.44t-9.22-39.22V125.11a13.56,13.56,0,0,1,13.31-13.31h10.27a13.56,13.56,0,0,1,13.31,13.31v57.2q0,13.55,3.61,18.56t12.49,5q8.18,0,15-6.66t6.77-14.35V125.11a13.56,13.56,0,0,1,13.3-13.31H992a13.56,13.56,0,0,1,13.31,13.31V219.9A13.56,13.56,0,0,1,992,233.2h-9.57a12.85,12.85,0,0,1-9.46-3.85,13.72,13.72,0,0,1-4.08-9.45V218a.22.22,0,0,0-.24-.24l-.46.47Q953,235.54,931.77,235.54Z" style="fill:#4d4d4d"/><path d="M1049.2,233.2a12.39,12.39,0,0,1-9.22-4,12.93,12.93,0,0,1-3.85-9.33V125.11a13,13,0,0,1,3.85-9.34,12.42,12.42,0,0,1,9.22-4h11.44a12.42,12.42,0,0,1,9.22,4,13,13,0,0,1,3.85,9.34v9.8a.21.21,0,0,0,.24.24c.31,0,.46-.08.46-.24q14.47-19.36,40.39-22.64a10.34,10.34,0,0,1,9.22,3.27,13.24,13.24,0,0,1,3.86,9.57V127a12.94,12.94,0,0,1-3.86,9.33,14.36,14.36,0,0,1-9.45,4.44q-18.91,2.1-29.3,13t-10.39,28.13V219.9a12.93,12.93,0,0,1-3.85,9.33,12.39,12.39,0,0,1-9.22,4Z" style="fill:#4d4d4d"/><path d="M1191.84,235.54q-20.53,0-29.76-11.44t-9.23-39.22V125.11a13.56,13.56,0,0,1,13.31-13.31h10.28a13.56,13.56,0,0,1,13.3,13.31v57.2q0,13.55,3.62,18.56t12.49,5q8.18,0,14.94-6.66t6.77-14.35V125.11a13.56,13.56,0,0,1,13.31-13.31h11.21a13.56,13.56,0,0,1,13.31,13.31V219.9a13.56,13.56,0,0,1-13.31,13.3h-9.57a12.85,12.85,0,0,1-9.46-3.85,13.67,13.67,0,0,1-4.08-9.45V218a.22.22,0,0,0-.24-.24l-.46.47Q1213.09,235.54,1191.84,235.54Z" style="fill:#4d4d4d"/><path d="M1309.28,233.2a12.39,12.39,0,0,1-9.23-4,13,13,0,0,1-3.85-9.33V125.11a13,13,0,0,1,3.85-9.34,12.43,12.43,0,0,1,9.23-4h9.57a12.87,12.87,0,0,1,9.45,3.85,13.73,13.73,0,0,1,4.09,9.46l.23,1.87a.21.21,0,0,0,.24.23l.46-.47q15.18-17.26,36.42-17.27t30.59,12q9.33,12,9.34,41V219.9a12.94,12.94,0,0,1-3.86,9.33,12.37,12.37,0,0,1-9.22,4h-10.27A13.56,13.56,0,0,1,1373,219.9V163.63q0-14-3.73-19.26t-13.54-5.25q-8.17,0-15.06,6.65t-6.89,14.36V219.9a12.93,12.93,0,0,1-3.85,9.33,12.4,12.4,0,0,1-9.22,4Z" style="fill:#4d4d4d"/></svg>