<svg xmlns="http://www.w3.org/2000/svg" viewBox="0 0 1191.67 264.27"><title>logo_yoko</title><path d="M5.69,175.88H334a0,0,0,0,1,0,0V235.3a23.29,23.29,0,0,1-23.29,23.29H29A23.29,23.29,0,0,1,5.69,235.3V175.88A0,0,0,0,1,5.69,175.88Z" style="fill:#ffda42"/><path d="M321.51,264.27H18.16A18.18,18.18,0,0,1,0,246.11V175.88a5.68,5.68,0,0,1,5.69-5.68H334a5.68,5.68,0,0,1,5.68,5.68v70.23A18.17,18.17,0,0,1,321.51,264.27ZM11.37,181.57v64.54a6.8,6.8,0,0,0,6.79,6.79H321.51a6.79,6.79,0,0,0,6.79-6.79V181.57Z" style="fill:#4d4d4d"/><path d="M156.6,81.36v-.22a75.46,75.46,0,0,0-150.91,0v.22h0v94.88h37.5v33.53h53V176.24H334V98.77a17.42,17.42,0,0,0-17.41-17.41Z" style="fill:#62d463"/><path d="M96.15,215.46h-53a5.68,5.68,0,0,1-5.68-5.69V181.92H5.69A5.68,5.68,0,0,1,0,176.24V81.14A81.14,81.14,0,0,1,138.52,23.77a80.56,80.56,0,0,1,23.59,51.91H316.58a23.12,23.12,0,0,1,23.09,23.09v77.47a5.68,5.68,0,0,1-5.68,5.68H101.83v27.85A5.68,5.68,0,0,1,96.15,215.46ZM48.88,204.08H90.46V176.24a5.69,5.69,0,0,1,5.69-5.69H328.3V98.77a11.74,11.74,0,0,0-11.72-11.72h-160a5.68,5.68,0,0,1-5.69-5.7v-.2a69.77,69.77,0,1,0-139.54,0v.21a1.21,1.21,0,0,1,0,.19v89H43.19a5.68,5.68,0,0,1,5.69,5.69Z" style="fill:#4d4d4d"/><circle cx="81.36" cy="81.14" r="25.38" style="fill:#4d4d4d"/><path d="M81.36,110.31a29.17,29.17,0,1,1,29.17-29.17A29.2,29.2,0,0,1,81.36,110.31Zm0-50.75A21.59,21.59,0,1,0,103,81.14,21.6,21.6,0,0,0,81.36,59.56Z" style="fill:#4d4d4d"/><circle cx="88.65" cy="74.68" r="11.43" style="fill:#fff"/><path d="M442.14,238.84A19.95,19.95,0,0,1,428,204.79L561.75,71.08A19.94,19.94,0,0,1,590,99.28L456.24,233A19.91,19.91,0,0,1,442.14,238.84Z" style="fill:#4d4d4d"/><path d="M568.85,194.46a19.91,19.91,0,0,1-14.11-5.84l-87-87a19.94,19.94,0,0,1,28.2-28.21l87,87a19.95,19.95,0,0,1-14.1,34.05Z" style="fill:#4d4d4d"/><path d="M906.64,238.54a19.94,19.94,0,0,1-19.95-19.94v-139a19.95,19.95,0,0,1,39.89,0v139A19.94,19.94,0,0,1,906.64,238.54Z" style="fill:#4d4d4d"/><path d="M813.93,236.18a19.94,19.94,0,0,1-19.28-25.11l36-134.23a19.94,19.94,0,1,1,38.52,10.32l-36,134.23A20,20,0,0,1,813.93,236.18Z" style="fill:#4d4d4d"/><path d="M906.57,238.84a19.95,19.95,0,0,1-5.15-39.21l53.24-14.27A19.94,19.94,0,1,1,965,223.89l-53.24,14.26A19.61,19.61,0,0,1,906.57,238.84Z" style="fill:#4d4d4d"/><path d="M1171.73,224.53h-139a19.95,19.95,0,0,1,0-39.89h139a19.95,19.95,0,0,1,0,39.89Z" style="fill:#4d4d4d"/><path d="M1098.16,115.92h-65.4a19.94,19.94,0,1,1,0-39.88h65.4a19.94,19.94,0,0,1,0,39.88Z" style="fill:#4d4d4d"/><path d="M1171.73,224.53a19.94,19.94,0,0,1-19.94-19.94V148.53a19.94,19.94,0,1,1,39.88,0v56.06A19.94,19.94,0,0,1,1171.73,224.53Z" style="fill:#4d4d4d"/><path d="M708.82,235a20,20,0,0,1-19.28-25.11l36-134.23A19.94,19.94,0,0,1,764,86l-36,134.24A19.93,19.93,0,0,1,708.82,235Z" style="fill:#4d4d4d"/><path d="M744.31,100.74H662.56a19.94,19.94,0,1,1,0-39.88h81.75a19.94,19.94,0,1,1,0,39.88Z" style="fill:#4d4d4d"/><path d="M647.58,156.54a19.73,19.73,0,0,1-5.18-.69,19.94,19.94,0,0,1-14.1-24.42l15.05-56.18a19.94,19.94,0,1,1,38.53,10.32l-15,56.18A20,20,0,0,1,647.58,156.54Z" style="fill:#4d4d4d"/></svg>