<svg xmlns="http://www.w3.org/2000/svg" width="100" height="100" viewBox="0 0 851.25 665"><title>mainvisual</title><circle cx="440.5" cy="332.5" r="332.5" style="fill:#fff;opacity:.22"/><rect width="428" height="232" x="223" y="261" style="fill:#f0f0f0;stroke:#4d4d4d;stroke-linejoin:round;stroke-width:6px"/><polygon points="712 591 162 591 223 493 651 493 712 591" style="fill:#f0f0f0;stroke:#4d4d4d;stroke-linejoin:round;stroke-width:6px"/><path d="M384.19,284.51c-12.7,0-26.43-3.48-43.22-10.94-14.67-6.52-26.13-16.76-35-31.28,0,0-.17-.27-.18-.3l-.41-.68-.19-.32c-.36-.61-.71-1.23-1.06-1.85-.21-.36-.41-.73-.61-1.09-.37-.68-.73-1.36-1.09-2.05l-.45-.86c-.5-1-1-2-1.48-3-6.48-13.77-5.63-28.29,2.22-40.47C297.2,186,284.75,173,272.43,159.74,238,122.72,238,119.81,238,117a28.61,28.61,0,0,1,4.69-14.49c4-6.13,9.82-9.51,16.31-9.51,3.5,0,9.35,0,41.8,42.43,12.68,16.59,24.57,33.35,28.41,38.81a42.63,42.63,0,0,1,5-.29c12.39,0,23.89,5.22,30.76,14,12.38,15.76,17.39,48.71,18.05,56.67.74,8.9,9.87,26,13.33,31.88a5,5,0,0,1-3.65,7.5,65.5,65.5,0,0,1-8.47.55Z" style="fill:#ffda42"/><path d="M259,98c11,0,67.4,80.94,67.4,80.94l-1.88,1.33a35.08,35.08,0,0,1,9.65-1.32C344.25,179,354.73,183,361,191c11,14,16.25,45,17,54,1,12,14,34,14,34a59.56,59.56,0,0,1-7.81.51c-12.74,0-26.28-3.88-41.19-10.51-14.67-6.52-25.18-16.83-32.89-29.48h0l-.06-.1c-.2-.32-.39-.66-.58-1-.35-.58-.69-1.16-1-1.75l-.57-1c-.36-.64-.7-1.29-1-2l-.43-.83c-.48-.94-1-1.9-1.41-2.87-6.82-14.49-4.19-28.26,4.17-38.82h0S243,123,243,117s5-19,16-19m0-10c-16.74,0-26,17.15-26,29,0,4.32,1.84,7.91,12.75,20.63,5.57,6.5,13.32,15.09,23,25.52,10.66,11.46,21.41,22.71,27.69,29.25-6.88,12.88-7.15,27.73-.5,41.86.45,1,1,2,1.54,3.14l.34.66.13.25c.38.72.76,1.43,1.15,2.14q.3.57.63,1.14c.37.66.74,1.3,1.12,1.94l.18.3c.14.25.28.49.43.73l.11.19a2.39,2.39,0,0,1,.13.21c9.31,15.18,21.84,26.34,37.23,33.18,17.45,7.76,31.83,11.37,45.25,11.37a68.75,68.75,0,0,0,9.13-.6,10,10,0,0,0,7.29-15c-4.91-8.33-12.09-23.06-12.64-29.74-.69-8.28-6-42.61-19.11-59.35-7.81-9.94-20.78-15.87-34.69-15.87-.85,0-1.69,0-2.53.06-5-7-15.62-21.9-26.87-36.61-9.15-12-16.94-21.53-23.17-28.45C271,92.18,265.08,88,259,88Z" style="fill:#fff"/><path d="M326.4,178.94S270,98,259,98s-16,13-16,19,66.17,74.18,66.17,74.18Z" style="fill:#ff9161;stroke:#4d4d4d;stroke-linejoin:round;stroke-width:6px"/><path d="M392,279s-13-22-14-34c-.75-9-6-40-17-54s-35-16-47-5-17,27-9,44,19.79,30.91,38,39C361,277,377,281,392,279Z" style="fill:#62d463;stroke:#4d4d4d;stroke-linejoin:round;stroke-width:6px"/><path d="M361,191s-13,20-21,21-13-11-22-4-7.89,31.53-7.89,31.53A99.67,99.67,0,0,1,305,230c-8-17-3-33,9-44S350,177,361,191Z" style="fill:#fff;stroke:#4d4d4d;stroke-linejoin:round;stroke-width:6px"/><path d="M438.56,132.47s-19.42,12.5-23.8,11.61-12.21-29.84-9.91-36.68,89.41-18,96.24-15.66,14.15,67.65,15.45,72.48-7.22,15.42-16.88,18-21.94,7-24.89-7.77,22.41-20.56,22.41-20.56-4.41-27.82-6-33.61l-32.56,9.84s18.81,58.1-16.39,69.69c-30.18,9.94-29.14-27.34-20.53-33.81a40.15,40.15,0,0,1,20.71-7.68Z" style="fill:#66c6ff;stroke:#4d4d4d;stroke-linejoin:round;stroke-width:6px"/><path d="M50,429c-1,6.93,38,7,38,7s12,37,17,37,35-10,35-10,35,35,39,35-7-61-12-64-37-3-37-3-9-50-15-50S51,422,50,429Z" style="fill:#ffda42;stroke:#4d4d4d;stroke-linejoin:round;stroke-width:6px"/><path d="M693,347c2.83,2.83,34-18,40-18s31,21,38,21,58-24,58-28-28-54-34-54-25,41-25,41-36-16-42-16S689,343,693,347Z" style="fill:#ffda42;stroke:#4d4d4d;stroke-linejoin:round;stroke-width:6px"/><path d="M747.14,511c-15.67,0-27.94-3.67-36.06-6.11l-2.81-.83c-7.39-2.13-17-8.28-21.06-15.89a13.84,13.84,0,0,1-1.36-10.84c1.56-4.89,6.28-7.3,10.07-9.24,2-1,5.06-2.58,5.36-3.69.15-.56-.18-2-1.64-4.33-.69-1.08-5.24-1.95-7.68-2.41-4.31-.82-8.76-1.66-12-4.34-3.59-3-5.54-6.51-5.81-10.46-.49-7.11,4.65-13.77,9.73-19.35,11.53-12.63,25.6-14.38,39.09-14.38,1.44,0,2.87,0,4.26,0h.93c6.32.07,29.09,1.65,56.34,18.94a53,53,0,0,1,21.9,28.62c3.42,10.68,3.23,21.27-.52,28.33-7.09,13.38-25,22.85-47.93,25.34a101.14,101.14,0,0,1-10.85.59Z" style="fill:#ffda42"/><path d="M723,414.09c1.75,0,3.47,0,5.14.05,12.69.15,33,5,53.72,18.16s25.58,39.2,19.65,50.39S779.44,503,757.45,505.4a95.25,95.25,0,0,1-10.31.56c-16.85,0-29.64-4.48-37.48-6.74-9.37-2.71-21.56-12.51-19-20.41s22.56-6.8,13.24-21.46c-3.38-5.31-15.76-3.82-20.66-7.91-7.42-6.19-3.85-13.53,4.42-22.6,10.59-11.62,23.78-12.75,35.38-12.75m0-10c-9.14,0-28.17,0-42.77,16-5.8,6.36-11.64,14.07-11,23.06.25,3.69,1.77,9.11,7.59,14,4.21,3.51,9.53,4.52,14.23,5.41,1,.19,2.28.43,3.37.69l-.75.38c-4.37,2.23-10.36,5.29-12.55,12.18-1.05,3.29-1.6,8.51,1.71,14.71,4.93,9.24,15.94,16,24.08,18.34.86.24,1.78.52,2.77.81,8.39,2.52,21.08,6.32,37.49,6.32a105.88,105.88,0,0,0,11.39-.62c24.58-2.67,43.94-13.12,51.81-28,4.37-8.23,4.69-20.26.86-32.19a57.93,57.93,0,0,0-24-31.32c-19.15-12.14-41.19-19.52-59-19.72h-.92c-1.41,0-2.86,0-4.33,0Zm-26.65,60.44Z" style="fill:#fff"/><path d="M683.2,449.44c4.9,4.09,17.28,2.6,20.66,7.91,9.32,14.66-10.73,13.56-13.24,21.46s9.67,17.7,19,20.41,25.8,8.57,47.79,6.18,38.12-11.52,44.06-22.71,1.08-37.24-19.65-50.39-41-18-53.72-18.16-28.32-.67-40.52,12.7C679.35,435.91,675.78,443.25,683.2,449.44Z" style="fill:#ffefb5;stroke:#4d4d4d;stroke-linejoin:round;stroke-width:6px"/><ellipse cx="717.09" cy="435.03" rx="12.23" ry="10.47" transform="translate(-5.4 9.03) rotate(-0.72)" style="fill:#62d463;stroke:#4d4d4d;stroke-linejoin:round;stroke-width:6px"/><ellipse cx="754.78" cy="440.84" rx="9.69" ry="9.54" transform="translate(-5.47 9.5) rotate(-0.72)" style="fill:#ffda42;stroke:#4d4d4d;stroke-linejoin:round;stroke-width:6px"/><ellipse cx="777.02" cy="465.39" rx="9.69" ry="9.54" transform="translate(-5.77 9.78) rotate(-0.72)" style="fill:#ff9161;stroke:#4d4d4d;stroke-linejoin:round;stroke-width:6px"/><ellipse cx="749.26" cy="483.48" rx="9.69" ry="9.54" transform="matrix(1, -0.01, 0.01, 1, -6, 9.43)" style="fill:#66c6ff;stroke:#4d4d4d;stroke-linejoin:round;stroke-width:6px"/><path d="M125,125s9-23,14-23,14,15,14,15,18,2,20,4-6,21-6,21,9,12,6,16-23,0-23,0-13,15-18,15-7-20-7-20-19-6-19-11S125,125,125,125Z" style="fill:#ffda42;stroke:#4d4d4d;stroke-linejoin:round;stroke-width:6px"/><circle cx="92" cy="322" r="13" style="fill:#f5f5f5;stroke:gray;stroke-linejoin:round;stroke-width:8px"/><circle cx="121" cy="333" r="8" style="fill:#f5f5f5;stroke:gray;stroke-linejoin:round;stroke-width:8px"/><path d="M22.37,287.74s-34.06-8.62-9.42-47.4c0,0,7.24-28.72,41.3-27.29s38.4,20.83,38.4,20.83,24.64,1.43,25.36,16.51-10.87,20.11-10.87,20.11,2.69,13.44-9.42,20.11c-13,7.18-28.26,2.87-28.26,2.87S62.22,305.69,44.83,305,22.37,287.74,22.37,287.74Z" style="fill:#f5f5f5;stroke:gray;stroke-linejoin:round;stroke-width:8px"/><path d="M765.27,180.73S768,187.4,758,195.14c0,0,12.73,9.74,28-.48,0,0,38.79,14,54.1-3.45s7.09-55.45-35.87-68.61-55,2.46-58.84,15.92C736.46,169.84,765.27,180.73,765.27,180.73Z" style="fill:#f5f5f5;stroke:gray;stroke-linejoin:round;stroke-width:8px"/><rect width="387" height="187" x="243" y="287" style="fill:#fff;stroke:#4d4d4d;stroke-linejoin:round;stroke-width:6px"/><path d="M301.11,332.51C298.78,338.13,292,365,301,369s124-5,130-9,4-33,0-38S304.22,325,301.11,332.51Z" style="fill:#ffda42;stroke:#4d4d4d;stroke-linejoin:round;stroke-width:6px"/><path d="M301.11,373.51C298.78,379.13,292,406,301,410s152-4,158-8,4-37,0-42c-1.87-2.34-57.59,2-87,4C338.47,366.24,302.77,369.53,301.11,373.51Z" style="fill:#66c6ff;stroke:#4d4d4d;stroke-linejoin:round;stroke-width:6px"/><path d="M302,413c-2.34,5.62-6,31,3,35s93,1,99-3,8-32,4-37c-2-2.5-10.43-.54-42,1C330.44,410.73,303.45,409.52,302,413Z" style="fill:#62d463;stroke:#4d4d4d;stroke-linejoin:round;stroke-width:6px"/><rect width="123" height="83.7" x="505" y="290" style="fill:#ffefb5;opacity:.32"/><rect width="123" height="98.3" x="505" y="373.7" style="fill:#62d463;opacity:.32"/><path d="M436.11,418s-6.32,32.41-1.58,34,11.07-6.33,11.07-6.33,3.95,13.44,7.11,14.23,11.07-3.95,11.86-5.53-6.32-12.65-6.32-12.65,7.11-.79,8.69-3.16S438.48,415.58,436.11,418Z" style="fill:none;stroke:gray;stroke-linejoin:round;stroke-width:6px"/><path d="M237.54,510.58c-6.18,5.94-27.47,34.56-23.55,39.28s438.67,6.28,446.53,0S642.85,514.51,636,510.58,247.36,501.15,237.54,510.58Z" style="fill:#fff;stroke:#4d4d4d;stroke-linejoin:round;stroke-width:6px"/><path d="M242.79,417.15c-7.81,0-14.5-9.13-18.9-17.27-4.75-3.53-9.91-11.32-13.83-19.09a62.57,62.57,0,0,1-10.48,4.95,27.48,27.48,0,0,1-8.65,1.15h-.61a29.19,29.19,0,0,1-22.45,11.58h-.4c-5.65,0-9.74-1.5-12.15-4.46a9.07,9.07,0,0,1-1.94-7.38,5,5,0,0,1,1.23-2.39l7.34-7.89a5,5,0,0,1,3.66-1.59,5.66,5.66,0,0,1,.82.06,5,5,0,0,1,2.73,1.42,8.32,8.32,0,0,0,1.53.33,14.64,14.64,0,0,0,1.89-3.77,2.38,2.38,0,0,0,.11-.38,5.56,5.56,0,0,0-.69.41,5,5,0,0,1-6,.57l-9.54-5.83a5,5,0,0,1-1.16-7.56,36.34,36.34,0,0,1,3.8-3.59c-12.5-15.84-30.21-52.64-21.76-73.3,3.64-8.89,17.75-17.19,43.1-25.34-.32-5.35-.83-15.18-.88-23.43a18.53,18.53,0,1,1,19.58-6.59c5.42,7.19,11.71,16.42,14.81,21,19.63-4.4,38.76-7.29,48.37-7.29a17.85,17.85,0,0,1,6.51.87c2.14.86,7.85,3.14,13.81,27a203,203,0,0,1,5.47,34,5,5,0,0,1,.85,2.05l1.88,11a4.79,4.79,0,0,1-2.75,5.34,4.6,4.6,0,0,0-.63.48,1.72,1.72,0,0,0,.39,0h.87a9.42,9.42,0,0,0,3.33-.37,8,8,0,0,0,.26-1.53,5,5,0,0,1,2.78-6.67l10.05-3.88a4.84,4.84,0,0,1,1.8-.34,5.24,5.24,0,0,1,.88.08,9.07,9.07,0,0,1,6.16,4.59c1.87,3.41,1.69,7.87-.54,13.26A29.13,29.13,0,0,1,288.16,345a28.67,28.67,0,0,1-6.28,6.24,70.65,70.65,0,0,1-12,5.93c2.28,9.16,3.66,18.9,2.9,24.79,1.66,9.1,2.78,23.95-6.34,27.91a9.49,9.49,0,0,1-3.76.8c-4.57,0-8.32-3.31-11.05-9.68,1.14,4.55,1,8.24-.31,11a9,9,0,0,1-6.09,4.88A9.84,9.84,0,0,1,242.79,417.15Zm-49.9-55.24a27.94,27.94,0,0,1,2,4.91,17.19,17.19,0,0,0,8.46-4.1,33.91,33.91,0,0,1-.56-3.84Q197.46,360.62,192.89,361.91Zm68.73-26.47a38.68,38.68,0,0,1,2.19,4,17.84,17.84,0,0,0,5.64-3.24,30.13,30.13,0,0,1-2.36-3.35Q264.5,334.1,261.62,335.44Z" style="fill:#ffda42"/><path d="M184.5,203a13.49,13.49,0,0,1,8,24.33c7.72,9.7,19.19,27.07,19.2,27.08,21.21-4.91,41.32-7.92,50.63-7.92A14.28,14.28,0,0,1,267,247c7.81,3.12,15.62,39.82,16.28,59.53l.78-.3,1.88,11s-4,2-4.07,6c0,2,3,4,6,4.06h.92c3,0,7.18-.3,8.12-3.9,1-4,.06-5,.06-5l10-3.89s6,1.07,1.88,11A24.2,24.2,0,0,1,287.2,340c-.52,0-1,0-1.55,0a28.24,28.24,0,0,1-6.56,7.12c-5.25,3.52-14.52,6.74-14.52,6.74l-3.49-8.1c4.69,12,7.87,29.62,6.61,36.32.65,3.37,3.54,20.29-3.26,23.24a4.4,4.4,0,0,1-1.77.39c-5,0-7.76-9.71-8.7-13.78a96.14,96.14,0,0,1-9.74,3.3c1.95,4.33,6.17,15.26-.22,16.86a5,5,0,0,1-1.21.15c-6.31,0-12.92-11.6-15.07-15.71-4.44-2.58-11.09-12.67-15.5-22.79h0l0,0c-4.07-9.36-6.22-18.73-2.93-22.23h0c-9.11,3.21-17.6,5.85-24.42,7.48,3.27,3.75,5.82,9,5.79,13.44,1-.07,2.14-.17,3.35-.3a21.76,21.76,0,0,0,13.67-6.6l4.54,8.21v0c-.19.12-8.29,5.37-14.22,7.35a23.28,23.28,0,0,1-7.07.89c-1.09,0-2.17,0-3.19-.11a24.31,24.31,0,0,1-19.93,11.68h-.34c-10.4,0-9.2-5.83-9.2-5.83l7.34-7.88s.57,1.29,4.66,1.8c.21,0,.41,0,.61,0,3.66,0,5.34-4.34,6.36-7s.3-6.32-1.57-7a5.92,5.92,0,0,0-2.09-.39,8.18,8.18,0,0,0-4.94,2l-9.54-5.82a33.42,33.42,0,0,1,7.44-6C154.42,345.39,133.85,304.93,142,285c3.53-8.63,22-16.95,43.72-23.64h0s-1.34-19.46-1.09-31.37h-.12a13.5,13.5,0,0,1,0-27m76.35,142.12a21.77,21.77,0,0,0,13.58-6.76c.73-.76,1.39-1.47,2-2.15a25.44,25.44,0,0,1-7.1-10.1c-4.6,2.36-10.18,5-16.33,7.77h0c2.74.88,5.48,5.33,7.85,11.24M184.5,193a23.5,23.5,0,0,0-9.87,44.83c.11,5.73.39,11.77.63,16.39-32.54,11-39.89,20.58-42.52,27-5.86,14.34-.71,33.29,4.64,46.66a141.31,141.31,0,0,0,15,27.94c-.45.47-.73.79-.83.9a10,10,0,0,0,2.31,15.12l3.47,2.12-6.4,6.87a10,10,0,0,0-2.47,4.79,14,14,0,0,0,3,11.55c3.41,4.18,8.8,6.3,16,6.3h.47a34.2,34.2,0,0,0,24.75-11.6,30.31,30.31,0,0,0,8.47-1.37,53.61,53.61,0,0,0,6.86-2.94c3.46,6.1,7.67,12,12,15.6,7,12.61,14.67,19,22.81,19a14.87,14.87,0,0,0,3.64-.45,14,14,0,0,0,9.37-7.55,2.56,2.56,0,0,0,.11-.24,13.85,13.85,0,0,0,6.75,1.71,14.3,14.3,0,0,0,5.74-1.22c8.52-3.69,10.39-13.2,10.45-20.54a72.22,72.22,0,0,0-1-12.12c.52-5.6-.41-13.62-2.13-21.64a61,61,0,0,0,9-4.76,30,30,0,0,0,6-5.57,34.29,34.29,0,0,0,27.39-20.44c2.83-6.86,2.94-12.77.3-17.58a14.23,14.23,0,0,0-9.66-7.11,10.46,10.46,0,0,0-1.76-.15,10.17,10.17,0,0,0-3.61.67l-8.76,3.39-.68-4a9.78,9.78,0,0,0-.88-2.71,210.09,210.09,0,0,0-5.52-33.72c-5.8-23.19-11.75-28.38-16.81-30.4a22.18,22.18,0,0,0-8.35-1.23c-9.39,0-27.35,2.62-46.14,6.67-2.89-4.25-7-10.23-11-15.64A23.46,23.46,0,0,0,184.5,193Z" style="fill:#fff"/><path d="M227,394s9,19,17,17-.62-18.62-.62-18.62Z" style="fill:#a3a3a3;stroke:#4d4d4d;stroke-linejoin:round;stroke-width:6px"/><path d="M267.57,380.4S272,401,264.43,404.23s-10.84-15.16-10.84-15.16Z" style="fill:#a3a3a3;stroke:#4d4d4d;stroke-linejoin:round;stroke-width:6px"/><path d="M209.28,350.38C202.07,358.05,221,394,229,396s34-7,38-13-5-47.23-14-50.12S214.55,344.77,209.28,350.38Z" style="fill:#e6e6e6;stroke:#4d4d4d;stroke-linejoin:round;stroke-width:6px"/><path d="M185.71,260.36S183,221,186,220s25.73,33.42,25.73,33.42Z" style="fill:#949494;stroke:#4d4d4d;stroke-linejoin:round;stroke-width:6px"/><circle cx="184.5" cy="215.5" r="13.5" style="fill:#ff9161;stroke:#4d4d4d;stroke-linejoin:round;stroke-width:6px"/><path d="M260.84,344.12a21.75,21.75,0,0,0,13.59-6.76c6.3-6.5,8-10.28,8-10.28l7.12,5.51s-5.16,9.92-10.42,13.44-14.52,6.74-14.52,6.74Z" style="fill:#e8e8e8;stroke:#4d4d4d;stroke-linejoin:round;stroke-width:6px"/><path d="M284.06,305.23l1.88,11s-4,2-4.07,6c0,2,3,4,6,4.06s8,.09,9-3.89.06-5,.06-5l10-3.89s6,1.07,1.88,11-16.19,16.82-27.16,13.7c-7.75-2.21-15.31-14.62-12.77-20.15C273,309.11,284.06,305.23,284.06,305.23Z" style="fill:#62d463;stroke:#4d4d4d;stroke-linejoin:round;stroke-width:6px"/><path d="M170,359c11.1,6.06,107-34,112-42s-5-67-15-71-116,16-125,38S159,353,170,359Z" style="fill:#e6e6e6;stroke:#4d4d4d;stroke-linejoin:round;stroke-width:6px"/><circle cx="181.5" cy="305.5" r="8.5" style="fill:#fff;stroke:#4d4d4d;stroke-linejoin:round;stroke-width:6px"/><circle cx="244.5" cy="285.5" r="8.5" style="fill:#fff;stroke:#4d4d4d;stroke-linejoin:round;stroke-width:6px"/><path d="M206,303s2,7,13,4,8-10,8-10" style="fill:none;stroke:#4d4d4d;stroke-linecap:round;stroke-linejoin:round;stroke-width:6px"/><path d="M207.67,364.4A21.76,21.76,0,0,1,194,371c-9,1-13,0-13,0v9s11,2,17,0,14.23-7.36,14.23-7.36Z" style="fill:#e8e8e8;stroke:#4d4d4d;stroke-linejoin:round;stroke-width:6px"/><path d="M159.1,362.3l9.54,5.82s3.3-3,7-1.57c1.87.72,2.66,4.24,1.57,7s-2.88,7.47-7,7-4.66-1.8-4.66-1.8l-7.34,7.88s-1.23,6,9.54,5.83,21.63-8.8,22.79-20.14c.82-8-7.9-19.64-14-19.33C166.79,353.48,159.1,362.3,159.1,362.3Z" style="fill:#62d463;stroke:#4d4d4d;stroke-linejoin:round;stroke-width:6px"/><path d="M659.87,293l-1,0a14.37,14.37,0,0,1-11.38-5.8c-4.69-6.25-4.68-16.09-3.49-24.39a57.34,57.34,0,0,1-16.05,2.29c-10.69,0-21.55-2.93-32.27-8.7-13.54-7.29-23.29-15.14-29.61-23.86-7.46,6.06-13.84,9.13-19,9.13a11.72,11.72,0,0,1-5.26-1.2c-4-2-7.11-6.56-9.15-13.5-4.89-16.64-3.71-48.69,5.09-63.52,8.67-14.62,20.41-22.34,33.94-22.34a39.18,39.18,0,0,1,9.63,1.25A243,243,0,0,1,612,105.62l.18-.18.69-.66,1.75-1.7,1.09-1,2.55-2.38,1.07-1q.88-.81,1.77-1.59l1.2-1.06c.69-.61,1.38-1.21,2.08-1.8l1.4-1.19c.65-.55,1.3-1.1,2-1.63l1.24-1q.9-.73,1.8-1.44l1.09-.87,2.61-2,1.21-.92,1.75-1.29,1.2-.88c.88-.63,1.75-1.26,2.62-1.86l1.12-.77c.6-.42,1.21-.83,1.81-1.23.41-.27.81-.55,1.22-.81.72-.48,1.44-.94,2.16-1.4l1.31-.83L651,74.83l1.18-.7L654.05,73l1-.56c.9-.5,1.78-1,2.67-1.46.28-.16,1.07-.57,1.07-.57l1.89-1,1-.52c.89-.44,1.78-.86,2.66-1.27l.87-.4,2-.88,1-.43c.82-.34,1.64-.67,2.45-1l.65-.25c.79-.3,1.58-.59,2.37-.86l.92-.31c.71-.24,1.41-.46,2.1-.67l.68-.21c.89-.26,1.76-.5,2.63-.72l.8-.19c.68-.17,1.36-.32,2-.46l.76-.16c.87-.17,1.73-.32,2.59-.45l.57-.08c.71-.1,1.41-.18,2.1-.25l.77-.07c1-.08,1.76-.12,2.52-.14h1.07c.51,0,1,0,1.5,0l.7,0c.71,0,1.39.09,2.07.16l.45,0c.8.1,1.61.22,2.42.38l.61.12c.63.14,1.27.29,1.89.46l.58.16c.81.24,1.56.5,2.28.78a3.84,3.84,0,0,1,.36.14c.66.27,1.28.55,1.89.85l.59.3c.82.43,1.49.81,2.12,1.22a22.31,22.31,0,0,1,1.89,1.36l.46.38.1.09c.42.35.83.71,1.22,1.09l.57.56c.39.41.78.84,1.16,1.28l.06.07c.12.13.23.26.34.4.49.59,1,1.22,1.39,1.85l.24.37c.38.58.7,1.1,1,1.64.12.19.23.4.34.6.31.57.57,1.07.81,1.58l.05.1c.1.2.19.39.28.59.29.64.58,1.3.84,2a1.79,1.79,0,0,1,.1.26c.28.72.55,1.48.82,2.34l.21.68c.17.58.34,1.17.5,1.78.07.26.14.53.2.8.16.62.3,1.25.43,1.89l.15.66c.16.86.32,1.74.46,2.63l0,.31c.12.82.23,1.6.32,2.39l.09.85q.11,1,.18,2c0,.29,0,.58.07.87.06.78.1,1.58.14,2.4l0,.43c0,1,.06,2,.07,3v.76c0,.73,0,1.49,0,2.26l0,1c0,.74,0,1.49-.07,2.24l0,.87c0,1-.11,2.06-.18,3.11a1,1,0,0,1,0,.17c-.07,1-.15,2-.24,3l-.1,1c-.07.75-.15,1.5-.24,2.26l-.12,1.09c-.1.82-.2,1.65-.31,2.47l-.1.82c-.15,1.07-.31,2.16-.48,3.25l-.14.9c-.12.81-.26,1.62-.39,2.44l-.21,1.2c-.13.76-.27,1.52-.41,2.27l-.22,1.16c-.19,1-.38,2-.59,3l-.08.4c-.22,1.11-.46,2.21-.7,3.33l-.26,1.13c-.17.78-.35,1.56-.53,2.35l-.29,1.21q-.28,1.25-.6,2.49l-.24,1c-.28,1.14-.58,2.28-.88,3.42l-.17.67c-.26.95-.51,1.88-.77,2.82l-.29,1.05c-.24.86-.49,1.72-.73,2.57l-.28.94a327,327,0,0,1-13,36.49c7.42,1.71,17,6.76,19.41,23.17,1.48,9.85-4.57,29.31-21.34,48.79-7.71,8.95-23.25,24-40.73,24Z" style="fill:#ffda42"/><path d="M693.25,65.13l1.34,0,.62,0c.6,0,1.2.08,1.79.14l.4,0c.7.08,1.38.19,2.06.32l.5.1c.54.12,1.08.25,1.6.39l.49.14c.64.19,1.28.4,1.89.64l.33.14c.52.21,1,.43,1.53.68l.48.24c.59.31,1.16.63,1.72,1s1,.7,1.5,1.08l.44.37c.33.28.66.57,1,.87l.46.45c.32.33.63.68.93,1,.11.13.23.25.33.38.4.49.78,1,1.14,1.52l.24.38c.28.42.55.86.81,1.31l.33.58c.22.42.44.84.65,1.27l.29.6c.25.56.49,1.13.72,1.72,0,.07.07.14.1.22q.38,1,.72,2.07l.18.61c.16.52.31,1.06.46,1.6l.18.73c.14.56.27,1.13.39,1.72,0,.2.09.4.13.61.16.79.3,1.59.43,2.41,0,.11,0,.23,0,.34.11.71.21,1.44.29,2.18l.09.79c.06.62.12,1.24.17,1.88l.06.82c.06.75.1,1.51.13,2.28,0,.14,0,.28,0,.42,0,.92.06,1.85.07,2.8v.71c0,.72,0,1.44,0,2.17,0,.31,0,.63,0,.94,0,.71,0,1.42-.08,2.15l0,.83c0,1-.11,2-.18,3a1.79,1.79,0,0,1,0,.23c-.07.94-.14,1.88-.23,2.83,0,.33-.06.66-.1,1-.07.73-.14,1.46-.23,2.19,0,.36-.07.71-.12,1.07q-.13,1.18-.3,2.4c0,.26-.06.52-.1.79-.14,1-.29,2.11-.46,3.17,0,.3-.09.59-.14.88-.12.8-.25,1.59-.39,2.39-.06.39-.13.78-.2,1.17-.13.74-.26,1.48-.4,2.22l-.21,1.13c-.18,1-.38,2-.58,2.95,0,.13-.05.27-.08.4-.22,1.08-.45,2.17-.69,3.26-.08.37-.16.74-.25,1.11-.17.76-.34,1.53-.52,2.3-.09.4-.19.8-.28,1.2-.2.81-.39,1.62-.59,2.44l-.24.95c-.28,1.12-.57,2.24-.86,3.37l-.18.67c-.25.92-.49,1.84-.75,2.76-.09.34-.19.69-.29,1-.23.84-.47,1.68-.72,2.53l-.27.92a318.63,318.63,0,0,1-15.48,42c7.24.5,19,1.88,21.73,19.84,3,19.79-29.32,67-57.13,67l-.87,0c-11.48-.41-12.84-15.54-8.39-33.07a52.52,52.52,0,0,1-22.71,5.17c-10,0-20.06-2.8-29.9-8.1-14.56-7.84-25.08-16.52-30.88-27-7.56,6.93-14.87,11.68-20.1,11.68a6.69,6.69,0,0,1-3-.66c-12-6-12-53.14-2-70,7.27-12.25,17.22-19.89,29.64-19.89a35.86,35.86,0,0,1,11.75,2.11A235,235,0,0,1,615.7,109h0l.67-.65,1.73-1.66,1.06-1c.83-.79,1.66-1.56,2.5-2.33l1.05-1,1.73-1.56,1.17-1c.68-.6,1.36-1.18,2-1.77L629,96.89l1.91-1.6,1.22-1,1.75-1.41L635,92c.84-.66,1.69-1.32,2.54-2,.4-.31.8-.6,1.2-.9.56-.43,1.13-.85,1.69-1.26l1.18-.86c.85-.61,1.7-1.22,2.56-1.81.36-.26.72-.5,1.08-.75L647,83.3l1.19-.79,2.1-1.36,1.26-.79c.68-.43,1.35-.84,2-1.25l1.14-.68c.62-.37,1.23-.73,1.85-1.08l1-.55c.86-.48,1.71-1,2.57-1.4l1-.55,1.83-.94,1-.49c.86-.43,1.71-.83,2.56-1.23l.83-.37L669.2,71l1-.4c.77-.33,1.55-.64,2.32-.94l.62-.23c.75-.29,1.49-.56,2.23-.81l.88-.3,2-.63.64-.19c.82-.25,1.64-.47,2.45-.67l.74-.19,1.87-.42.7-.14q1.2-.24,2.37-.42l.52-.06c.64-.09,1.27-.17,1.9-.23l.69-.06c.76-.07,1.51-.12,2.26-.14h.92m0-10h-1.2c-.85,0-1.77.07-2.81.16l-.84.08c-.76.07-1.53.16-2.29.27H686l-.52.08c-.89.13-1.84.29-2.81.48l-.64.13-.19,0c-.72.15-1.45.32-2.17.5l-.2,0-.66.16c-1,.25-1.9.51-2.81.77l-.54.17-.18.05-2.23.72-1,.33c-.85.29-1.69.6-2.5.9l-.68.26c-.82.32-1.66.66-2.57,1l-1.06.44-2.09.93-.27.12-.64.29c-.88.41-1.82.85-2.78,1.33l-.82.41-.24.12q-1,.49-2,1l-.21.11-.9.47c-.91.49-1.83,1-2.75,1.51l-.7.4-.31.18-2,1.16-1.22.72-2.15,1.33c-.44.27-.89.55-1.33.84-.74.47-1.49,1-2.23,1.44l-1.25.83-1.86,1.27-.34.23-.81.55L635.71,79l-1,.73-.24.18c-.59.43-1.19.87-1.78,1.32l-.18.13-1.07.81c-.89.68-1.78,1.36-2.67,2.06l-.77.61-.35.28q-.92.72-1.83,1.47l-1.27,1-2,1.66-1.42,1.22L619,92.3l-1.22,1.08L616,95l-.33.3-.76.69-2.6,2.42-.86.82-.25.24-1.79,1.73-.25.23-.45.44c-.09.08-.17.17-.25.25a249.78,249.78,0,0,0-29.39,34.65,42.77,42.77,0,0,0-7.41-.66c-19.45,0-31.53,13.48-38.24,24.79-9.57,16.13-10.86,49.52-5.59,67.48,2.45,8.33,6.39,13.9,11.72,16.56a16.46,16.46,0,0,0,7.49,1.72c5.37,0,11.35-2.36,18.13-7.17,6.67,7.74,16,14.77,28.11,21.31,11.46,6.17,23.11,9.3,34.64,9.3a62.33,62.33,0,0,0,10.41-.87c-.31,7.68.88,15.31,5.13,21a19.47,19.47,0,0,0,15.2,7.79l1.23,0c8.36,0,25.26-3.34,44.52-25.72,12.9-15,24.85-37.1,22.5-52.78-1.62-10.83-6.23-18.71-13.7-23.44a29.46,29.46,0,0,0-4-2.07,338.12,338.12,0,0,0,11.12-32l.2-.69.08-.27c.25-.87.5-1.74.74-2.61l0-.1.27-1c.26-1,.52-1.9.77-2.86l.07-.25.12-.44c.3-1.16.6-2.32.89-3.48l.16-.63.09-.35c.2-.85.41-1.69.61-2.53.1-.41.19-.83.29-1.24.18-.8.37-1.6.54-2.4l.07-.31.19-.84c.25-1.13.49-2.26.72-3.38l.06-.29,0-.12c.21-1,.41-2.06.61-3.08,0-.29.11-.58.16-.87l.06-.31c.14-.77.28-1.55.41-2.32.07-.41.15-.81.21-1.22.15-.84.28-1.67.41-2.5l0-.32.1-.61q.26-1.68.48-3.33l.07-.55,0-.29c.11-.85.22-1.69.32-2.53l.12-1.13c.09-.78.17-1.55.25-2.32l0-.26c0-.26,0-.52.08-.78.09-1,.17-2,.25-3l0-.23c.07-1,.13-2.08.19-3.24,0-.21,0-.42,0-.64v-.26c0-.78.06-1.56.08-2.33,0-.34,0-.68,0-1,0-.8,0-1.59,0-2.37v-.78c0-1.07,0-2.11-.08-3.09,0-.13,0-.26,0-.38v-.09c0-.85-.08-1.71-.14-2.54l-.06-.78v-.14c-.06-.71-.12-1.42-.2-2.13v-.15c0-.25-.06-.5-.08-.74-.1-.85-.21-1.69-.34-2.51,0-.12,0-.26-.05-.38-.14-.92-.31-1.88-.5-2.83l-.12-.57,0-.15c-.15-.73-.31-1.41-.47-2.06-.07-.3-.15-.59-.22-.88-.17-.65-.35-1.29-.56-2l0-.16c-.06-.2-.12-.4-.19-.6-.3-1-.6-1.8-.91-2.6,0-.14-.1-.26-.15-.39-.29-.71-.59-1.43-.91-2.13-.1-.23-.21-.45-.32-.67l-.06-.12c-.28-.58-.57-1.16-.87-1.71-.15-.27-.3-.54-.45-.79-.34-.59-.7-1.17-1.09-1.77-.14-.22-.25-.4-.37-.57-.51-.75-1.06-1.48-1.64-2.18-.15-.19-.3-.37-.46-.55l0,0c-.44-.52-.9-1-1.36-1.49-.22-.23-.45-.45-.68-.67-.45-.44-1-.89-1.46-1.32l-.08-.07-.6-.49a27,27,0,0,0-2.29-1.65c-.76-.49-1.55-1-2.5-1.44l-.69-.35q-1.07-.52-2.13-1l-.53-.21c-.84-.33-1.74-.64-2.67-.91l-.58-.16-.1,0c-.71-.2-1.45-.38-2.19-.53l-.11,0-.58-.13c-.93-.17-1.86-.32-2.76-.42l-.53-.06c-.75-.07-1.54-.14-2.33-.18l-.8,0c-.55,0-1.1,0-1.66,0Z" style="fill:#fff"/><path d="M570.73,332.34a6.23,6.23,0,0,1-.76,0,7.17,7.17,0,0,1-5.22-3.06c-2.37-3.49-1.16-8,.12-12.85a40.17,40.17,0,0,0,1.39-6.72,28.88,28.88,0,0,0-1.5,3.2c-1.18,2.85-2.8,6.76-7.07,6.76a6.11,6.11,0,0,1-3.63-1.23c-2-1.52-8.28-6.15-2-37.56,3.54-17.83,17.36-24.16,28.12-24.16a24.15,24.15,0,0,1,9.63,1.89c14.22,6.28,20.45,17.29,17.55,31-2.56,12.14-11.55,23.25-16.68,28.79-2.15,2.34-13.26,14-19.91,14Z" style="fill:#ffda42"/><path d="M580.15,261.68a19,19,0,0,1,7.61,1.47c39.56,17.46-9.37,64.19-17,64.19h-.19c-7-.81,6-19.53-2-22.87a5.47,5.47,0,0,0-2.14-.47c-5.51,0-6.33,10.64-8.68,10.64a1.11,1.11,0,0,1-.65-.25c-3.2-2.38-4-13.18-.11-32.56,2.93-14.76,14.13-20.14,23.22-20.14m0-10h0c-13.65,0-29.16,8.72-33,28.19-6.08,30.59-1.08,38.8,4,42.54a11,11,0,0,0,6.61,2.22l.7,0a13.09,13.09,0,0,0,2.23,7.45,12.13,12.13,0,0,0,8.78,5.22,11.9,11.9,0,0,0,1.34.07c3.64,0,7.5-1.67,12.51-5.42a84.88,84.88,0,0,0,11.08-10.16c5.48-5.92,15.09-17.85,17.89-31.16,3.39-16-4.06-29.38-20.42-36.6a29,29,0,0,0-11.65-2.32Z" style="fill:#fff"/><path d="M693,201c6.7.56,21,0,24,20s-30,68-58,67S663.2,198.49,693,201Z" style="fill:#62d463;stroke:#4d4d4d;stroke-linejoin:round;stroke-width:6px"/><path d="M586,149.21c-19.27-8-34.12.13-44,16.79-10,16.86-10,64,2,70,11.31,5.66,40-26,52-46.89C605.07,173.32,598,154.19,586,149.21Z" style="fill:#62d463;stroke:#4d4d4d;stroke-linejoin:round;stroke-width:6px"/><path d="M598,252c30.32,16.33,63,9,87-31,24.46-40.76,51.61-133.61,23-152-28-18-94.17,29.64-127,83C549,204,559,231,598,252Z" style="fill:#ffefb5;stroke:#4d4d4d;stroke-linejoin:round;stroke-width:6px"/><circle cx="622.5" cy="202.5" r="28.5" style="fill:#66c6ff;stroke:#4d4d4d;stroke-linejoin:round;stroke-width:6px"/><path d="M709.75,162.58A87,87,0,0,0,629,108a88.54,88.54,0,0,0-13.31,1C648.57,76.75,688,56.15,708,69,726.3,80.76,721.79,123,709.75,162.58Z" style="fill:#ff9161;stroke:#4d4d4d;stroke-linejoin:round;stroke-width:6px"/><path d="M587.76,263.15c-8.86-3.92-27-.72-30.83,18.67s-3.09,30.18.11,32.56,3.42-13.27,11.47-9.92-5,22.06,2,22.87S627.65,280.76,587.76,263.15Z" style="fill:#ff9161;stroke:#4d4d4d;stroke-linejoin:round;stroke-width:6px"/><path d="M585.68,270.68c5.54,1.77.71,28.61-8.61,25.79S574.58,267.11,585.68,270.68Z" style="fill:#ffda42;stroke:#4d4d4d;stroke-linejoin:round;stroke-width:6px"/></svg>