<svg xmlns="http://www.w3.org/2000/svg" width="100" height="100" viewBox="0 0 149.6 189"><title>minecraft</title><path d="M96.3,184a5,5,0,0,1-2.5-.67l-43.3-25a5.14,5.14,0,0,1-1-.74l-42-24.26A5,5,0,0,1,5,129V35a5,5,0,0,1,2.5-4.33l43.3-25a5,5,0,0,1,5,0l43.3,25A5,5,0,0,1,101.6,35V76.29l40.5,23.38a5,5,0,0,1,2.5,4.33v50a5,5,0,0,1-2.5,4.33l-43.3,25A5,5,0,0,1,96.3,184Z" style="fill:#62d463"/><path d="M53.3,10,96.6,35V79.17l43,24.83v50L96.3,179,53,154v-.17L10,129V35L53.3,10m0-10a10,10,0,0,0-5,1.34L5,26.34A10,10,0,0,0,0,35v94a10,10,0,0,0,5,8.66l41.58,24a10.27,10.27,0,0,0,1.42,1l43.3,25a10,10,0,0,0,10,0l43.3-25a10,10,0,0,0,5-8.66V104a10,10,0,0,0-5-8.66l-38-21.94V35a10,10,0,0,0-5-8.66l-43.3-25A10,10,0,0,0,53.3,0Z" style="fill:#fff"/><polygon points="96.6 80 96.6 130 53.3 155 10 130 10 80 53.3 105 96.6 80" style="fill:#ff9161;stroke:#4d4d4d;stroke-linejoin:round;stroke-width:6px"/><polygon points="96.6 80 53.3 105 10 80 53.3 55 96.6 80" style="fill:#ff9161;stroke:#4d4d4d;stroke-linejoin:round;stroke-width:6px"/><line x1="53.3" x2="53.3" y1="105" y2="155" style="fill:#ff9161;stroke:#4d4d4d;stroke-linejoin:round;stroke-width:6px"/><polygon points="96.6 36 96.6 80 53.3 105 10 80 10 36 53.3 61 96.6 36" style="fill:#ffda42;stroke:#4d4d4d;stroke-linejoin:round;stroke-width:6px"/><polygon points="96.6 36 53.3 61 10 36 53.3 11 96.6 36" style="fill:#62d463;stroke:#4d4d4d;stroke-linecap:round;stroke-linejoin:round;stroke-width:6px"/><line x1="53.3" x2="53.3" y1="61" y2="111" style="fill:#62d463;stroke:#4d4d4d;stroke-linecap:round;stroke-linejoin:round;stroke-width:6px"/><polygon points="139.6 105 139.6 155 96.3 180 53 155 53 105 96.3 130 139.6 105" style="fill:#ffda42;stroke:#4d4d4d;stroke-linejoin:round;stroke-width:6px"/><polygon points="139.6 105 96.3 130 53 105 96.3 80 139.6 105" style="fill:#62d463;stroke:#4d4d4d;stroke-linecap:round;stroke-linejoin:round;stroke-width:6px"/><line x1="96.3" x2="96.3" y1="130" y2="180" style="fill:#62d463;stroke:#4d4d4d;stroke-linecap:round;stroke-linejoin:round;stroke-width:6px"/></svg>