<svg xmlns="http://www.w3.org/2000/svg" width="344" height="129" fill="none" viewBox="0 0 344 129"><path fill="#fff" d="M284.309 114.132C284.309 96.0458 293.352 82.4809 298.696 77.1371C306.506 70.1491 311.767 65.9563 324.592 77.1371C337.417 88.3179 339.527 106.459 338.979 114.132H284.309Z"/><path fill="#6BBBE9" fill-rule="evenodd" d="M309.23 66.3595C314.889 65.598 320.566 68.3201 327.221 74.122C334.363 80.3486 338.424 88.4221 340.633 95.8035C342.836 103.167 343.277 110.106 342.969 114.417C342.82 116.511 341.078 118.132 338.979 118.132H284.309C282.099 118.132 280.309 116.341 280.309 114.132C280.309 94.7587 289.95 80.2258 295.867 74.3087C295.92 74.2563 295.973 74.2055 296.028 74.1561C296.065 74.1236 296.101 74.091 296.138 74.0584C299.786 70.7933 303.947 67.0704 309.23 66.3595ZM301.448 80.0415C297.055 84.4753 289.647 95.427 288.469 110.132H335.02C334.878 106.826 334.307 102.571 332.969 98.0967C331.053 91.6939 327.647 85.1064 321.964 80.1522C315.794 74.7733 312.427 74.0014 310.297 74.2881C307.86 74.6159 305.53 76.3933 301.448 80.0415Z" clip-rule="evenodd"/><path fill="#fff" d="M336.924 62.3391C336.924 76.1874 325.698 87.4137 311.849 87.4137C298.001 87.4137 286.775 76.1874 286.775 62.3391C286.775 48.4908 298.001 37.2645 311.849 37.2645C325.698 37.2645 336.924 48.4908 336.924 62.3391Z"/><path fill="#6BBBE9" fill-rule="evenodd" d="M311.849 79.4137C321.279 79.4137 328.924 71.7691 328.924 62.3391C328.924 52.9091 321.279 45.2645 311.849 45.2645C302.419 45.2645 294.775 52.9091 294.775 62.3391C294.775 71.7691 302.419 79.4137 311.849 79.4137ZM311.849 87.4137C325.698 87.4137 336.924 76.1874 336.924 62.3391C336.924 48.4908 325.698 37.2645 311.849 37.2645C298.001 37.2645 286.775 48.4908 286.775 62.3391C286.775 76.1874 298.001 87.4137 311.849 87.4137Z" clip-rule="evenodd"/><path fill="#fff" d="M253.175 99.5309H295.984L304.199 124.61H261.824L253.175 99.5309Z"/><path fill="#F5D248" fill-rule="evenodd" d="M249.918 97.2088C250.669 96.1559 251.882 95.5309 253.175 95.5309H295.984C297.713 95.5309 299.246 96.6422 299.785 98.2857L308.001 123.365C308.4 124.584 308.191 125.92 307.438 126.958C306.686 127.996 305.481 128.61 304.199 128.61H261.824C260.117 128.61 258.598 127.528 258.042 125.914L249.394 100.835C248.972 99.6124 249.168 98.2617 249.918 97.2088ZM258.786 103.531L264.675 120.61H298.68L293.085 103.531H258.786Z" clip-rule="evenodd"/><path fill="#F5D248" fill-rule="evenodd" d="M314.577 128.611H302.902V120.611H314.577C316.786 120.611 318.577 122.401 318.577 124.611C318.577 126.82 316.786 128.611 314.577 128.611Z" clip-rule="evenodd"/><path fill="#6BBBE9" fill-rule="evenodd" d="M47.192 30.0376C52.8513 29.2761 58.5278 31.9982 65.1829 37.8001C72.3252 44.0267 76.3864 52.1002 78.5949 59.4816C80.7981 66.8449 81.2392 73.7839 80.9312 78.0954C80.7817 80.1887 79.04 81.8105 76.9414 81.8105H22.2706C20.0615 81.8105 18.2706 80.0196 18.2706 77.8105C18.2706 58.4368 27.9121 43.9039 33.8292 37.9868C33.8816 37.9344 33.9353 37.8836 33.9905 37.8342C34.0268 37.8017 34.0633 37.7691 34.0997 37.7365C37.7485 34.4714 41.9088 30.7485 47.192 30.0376ZM39.4105 43.7196C35.0168 48.1534 27.6086 59.1051 26.4306 73.8105H72.9822C72.8404 70.5045 72.2695 66.2496 70.9307 61.7748C69.0149 55.372 65.6086 48.7845 59.9258 43.8303C53.7559 38.4514 50.3892 37.6795 48.2589 37.9662C45.8223 38.294 43.4925 40.0714 39.4105 43.7196Z" clip-rule="evenodd"/><path fill="#fff" d="M74.8861 26.0171C74.8861 39.8654 63.6598 51.0916 49.8115 51.0916C35.9632 51.0916 24.7369 39.8654 24.7369 26.0171C24.7369 12.1688 35.9632 0.942505 49.8115 0.942505C63.6598 0.942505 74.8861 12.1688 74.8861 26.0171Z"/><path fill="#6BBBE9" fill-rule="evenodd" d="M49.8115 43.0916C59.2415 43.0916 66.8861 35.4471 66.8861 26.0171C66.8861 16.587 59.2415 8.9425 49.8115 8.9425C40.3815 8.9425 32.7369 16.587 32.7369 26.0171C32.7369 35.4471 40.3815 43.0916 49.8115 43.0916ZM49.8115 51.0916C63.6598 51.0916 74.8861 39.8654 74.8861 26.0171C74.8861 12.1688 63.6598 0.942505 49.8115 0.942505C35.9632 0.942505 24.7369 12.1688 24.7369 26.0171C24.7369 39.8654 35.9632 51.0916 49.8115 51.0916Z" clip-rule="evenodd"/><path fill="#fff" d="M89.726 77.8104C89.726 59.7239 98.7692 46.159 104.113 40.8152C111.923 33.8272 117.185 29.6344 130.01 40.8152C142.835 51.996 144.945 70.1373 144.397 77.8104H89.726Z"/><path fill="#6BBBE9" fill-rule="evenodd" d="M114.647 30.0376C120.307 29.2761 125.983 31.9982 132.638 37.8001C139.781 44.0267 143.842 52.1002 146.05 59.4816C148.253 66.8449 148.695 73.7839 148.387 78.0954C148.237 80.1887 146.495 81.8105 144.397 81.8105H89.726C87.5168 81.8105 85.726 80.0196 85.726 77.8105C85.726 58.4368 95.3674 43.9039 101.285 37.9868C101.337 37.9344 101.391 37.8836 101.446 37.8342C101.482 37.8017 101.519 37.7691 101.555 37.7365C105.204 34.4714 109.364 30.7485 114.647 30.0376ZM106.866 43.7196C102.472 48.1534 95.064 59.1051 93.8859 73.8105H140.438C140.296 70.5045 139.725 66.2496 138.386 61.7748C136.47 55.372 133.064 48.7845 127.381 43.8303C121.211 38.4514 117.844 37.6795 115.714 37.9662C113.278 38.294 110.948 40.0714 106.866 43.7196Z" clip-rule="evenodd"/><path fill="#fff" d="M142.341 26.0171C142.341 39.8654 131.115 51.0916 117.267 51.0916C103.419 51.0916 92.1923 39.8654 92.1923 26.0171C92.1923 12.1688 103.419 0.942505 117.267 0.942505C131.115 0.942505 142.341 12.1688 142.341 26.0171Z"/><path fill="#6BBBE9" fill-rule="evenodd" d="M117.267 43.0916C126.697 43.0916 134.341 35.4471 134.341 26.0171C134.341 16.587 126.697 8.9425 117.267 8.9425C107.837 8.9425 100.192 16.587 100.192 26.0171C100.192 35.4471 107.837 43.0916 117.267 43.0916ZM117.267 51.0916C131.115 51.0916 142.341 39.8654 142.341 26.0171C142.341 12.1688 131.115 0.942505 117.267 0.942505C103.419 0.942505 92.1923 12.1688 92.1923 26.0171C92.1923 39.8654 103.419 51.0916 117.267 51.0916Z" clip-rule="evenodd"/><path fill="#fff" d="M157.181 77.8104C157.181 59.7239 166.225 46.159 171.568 40.8152C179.378 33.8272 184.64 29.6344 197.465 40.8152C210.29 51.996 212.4 70.1373 211.852 77.8104H157.181Z"/><path fill="#6BBBE9" fill-rule="evenodd" d="M182.103 30.0376C187.762 29.2761 193.438 31.9982 200.094 37.8001C207.236 44.0267 211.297 52.1002 213.506 59.4816C215.709 66.8449 216.15 73.7839 215.842 78.0954C215.692 80.1887 213.951 81.8105 211.852 81.8105H157.181C154.972 81.8105 153.181 80.0196 153.181 77.8105C153.181 58.4368 162.823 43.9039 168.74 37.9868C168.792 37.9344 168.846 37.8836 168.901 37.8342C168.937 37.8017 168.974 37.7691 169.01 37.7365C172.659 34.4714 176.819 30.7485 182.103 30.0376ZM174.321 43.7196C169.927 48.1534 162.519 59.1051 161.341 73.8105H207.893C207.751 70.5045 207.18 66.2496 205.841 61.7748C203.926 55.372 200.519 48.7845 194.836 43.8303C188.667 38.4514 185.3 37.6795 183.17 37.9662C180.733 38.294 178.403 40.0714 174.321 43.7196Z" clip-rule="evenodd"/><path fill="#fff" d="M209.797 26.0171C209.797 39.8654 198.57 51.0916 184.722 51.0916C170.874 51.0916 159.648 39.8654 159.648 26.0171C159.648 12.1688 170.874 0.942505 184.722 0.942505C198.57 0.942505 209.797 12.1688 209.797 26.0171Z"/><path fill="#6BBBE9" fill-rule="evenodd" d="M184.722 43.0916C194.152 43.0916 201.797 35.4471 201.797 26.0171C201.797 16.587 194.152 8.9425 184.722 8.9425C175.292 8.9425 167.648 16.587 167.648 26.0171C167.648 35.4471 175.292 43.0916 184.722 43.0916ZM184.722 51.0916C198.57 51.0916 209.797 39.8654 209.797 26.0171C209.797 12.1688 198.57 0.942505 184.722 0.942505C170.874 0.942505 159.648 12.1688 159.648 26.0171C159.648 39.8654 170.874 51.0916 184.722 51.0916Z" clip-rule="evenodd"/><path fill="#fff" d="M4.10962 68.3978H231.555V93.4774H4.10962V68.3978Z"/><path fill="#6BBBE9" fill-rule="evenodd" d="M0.109619 68.3978C0.109619 66.1887 1.90048 64.3978 4.10962 64.3978H231.555C233.764 64.3978 235.555 66.1887 235.555 68.3978V93.4774C235.555 95.6865 233.764 97.4774 231.555 97.4774H4.10962C1.90048 97.4774 0.109619 95.6865 0.109619 93.4774V68.3978ZM8.10962 72.3978V89.4774H227.555V72.3978H8.10962Z" clip-rule="evenodd"/><path fill="#fff" d="M231.555 52.8311H188.747L180.531 77.9106H222.907L231.555 52.8311Z"/><path fill="#F5D248" fill-rule="evenodd" d="M234.812 50.509C234.061 49.4561 232.848 48.8311 231.555 48.8311H188.747C187.018 48.8311 185.484 49.9424 184.946 51.5858L176.73 76.6654C176.331 77.8838 176.54 79.2197 177.292 80.2578C178.045 81.296 179.249 81.9106 180.531 81.9106H222.907C224.614 81.9106 226.132 80.8279 226.689 79.2146L235.337 54.135C235.758 52.9126 235.563 51.5618 234.812 50.509ZM225.945 56.8311L220.055 73.9106H186.051L191.646 56.8311H225.945Z" clip-rule="evenodd"/><path fill="#F5D248" fill-rule="evenodd" d="M170.154 81.9106H181.828V73.9106H170.154C167.944 73.9106 166.154 75.7015 166.154 77.9106C166.154 80.1198 167.944 81.9106 170.154 81.9106Z" clip-rule="evenodd"/><path fill="#fff" d="M151.128 52.8311H108.32L100.104 77.9106H142.48L151.128 52.8311Z"/><path fill="#F5D248" fill-rule="evenodd" d="M154.385 50.509C153.634 49.4561 152.421 48.8311 151.128 48.8311H108.319C106.59 48.8311 105.057 49.9424 104.518 51.5858L96.3025 76.6654C95.9034 77.8838 96.1125 79.2197 96.8649 80.2578C97.6172 81.296 98.8216 81.9106 100.104 81.9106H142.48C144.186 81.9106 145.705 80.8279 146.261 79.2146L154.909 54.135C155.331 52.9126 155.135 51.5618 154.385 50.509ZM145.517 56.8311L139.628 73.9106H105.623L111.218 56.8311H145.517Z" clip-rule="evenodd"/><path fill="#F5D248" fill-rule="evenodd" d="M89.726 81.9106H101.401V73.9106H89.726C87.5169 73.9106 85.726 75.7015 85.726 77.9106C85.726 80.1198 87.5169 81.9106 89.726 81.9106Z" clip-rule="evenodd"/><path fill="#fff" d="M4.10962 52.8311H46.9178L55.1335 77.9106H12.7577L4.10962 52.8311Z"/><path fill="#F5D248" fill-rule="evenodd" d="M0.852666 50.509C1.60331 49.4561 2.8166 48.8311 4.10965 48.8311H46.9178C48.6472 48.8311 50.1807 49.9424 50.7191 51.5858L58.9348 76.6654C59.3339 77.8838 59.1248 79.2197 58.3724 80.2578C57.6201 81.296 56.4157 81.9106 55.1335 81.9106H12.7578C11.0512 81.9106 9.53259 80.8279 8.97627 79.2146L0.328155 54.135C-0.0933667 52.9126 0.102024 51.5618 0.852666 50.509ZM9.72009 56.8311L15.6096 73.9106H49.614L44.019 56.8311H9.72009Z" clip-rule="evenodd"/><path fill="#F5D248" fill-rule="evenodd" d="M65.5113 81.9106H53.8363V73.9106H65.5113C67.7204 73.9106 69.5113 75.7015 69.5113 77.9106C69.5113 80.1198 67.7204 81.9106 65.5113 81.9106Z" clip-rule="evenodd"/></svg>