<svg xmlns="http://www.w3.org/2000/svg" width="100" height="100" viewBox="0 0 205 160"><title>scratch</title><path d="M14.39,155A9.4,9.4,0,0,1,5,145.61V27a5,5,0,0,1,1-3c.59-.77,14.89-19,50-19,30,0,44.46,11.29,49.2,16h85A9.77,9.77,0,0,1,200,30.76V61.24A9.77,9.77,0,0,1,190.24,71H140V99h50.61a9.4,9.4,0,0,1,9.39,9.39v37.22a9.4,9.4,0,0,1-9.39,9.39Z" style="fill:#62d463"/><path d="M56,10c35,0,47,16,47,16h87.23A4.76,4.76,0,0,1,195,30.77V61.23A4.76,4.76,0,0,1,190.23,66H135v38h55.61a4.4,4.4,0,0,1,4.39,4.39v37.22a4.4,4.4,0,0,1-4.39,4.39H14.39A4.4,4.4,0,0,1,10,145.61V27S23,10,56,10M56,0C40.75,0,26.79,3.4,15.63,9.84,7,14.83,2.8,20,2.05,20.93A10,10,0,0,0,0,27V145.61A14.41,14.41,0,0,0,14.39,160H190.61A14.41,14.41,0,0,0,205,145.61V108.39A14.41,14.41,0,0,0,190.61,94H145V76h45.23A14.78,14.78,0,0,0,205,61.23V30.77A14.78,14.78,0,0,0,190.23,16h-83a51.38,51.38,0,0,0-9.8-6.79C86.13,3.1,72.2,0,56,0Z" style="fill:#fff"/><path d="M9.5,66.5v-39s13-17,46-17c35,0,47,16,47,16h87.23a4.76,4.76,0,0,1,4.77,4.77V61.73a4.76,4.76,0,0,1-4.77,4.77Z" style="fill:#ffda42;stroke:#4d4d4d;stroke-linejoin:round;stroke-width:6px"/><rect width="125" height="38" x="9.5" y="66.5" style="fill:#ff9161;stroke:#4d4d4d;stroke-linejoin:round;stroke-width:6px"/><path d="M9.5,104.5H190.11a4.39,4.39,0,0,1,4.39,4.39v37.22a4.39,4.39,0,0,1-4.39,4.39H13.89a4.39,4.39,0,0,1-4.39-4.39V104.5A0,0,0,0,1,9.5,104.5Z" style="fill:#66c6ff;stroke:#4d4d4d;stroke-linejoin:round;stroke-width:6px"/><rect width="44" height="27" x="19.5" y="113.5" rx="13.5" style="fill:#fff;stroke:#4d4d4d;stroke-miterlimit:10;stroke-width:4px"/><path d="M29,55l9.65-29a24.43,24.43,0,0,1,8.78-2c4.39,0,9.65,4,14,4A81.32,81.32,0,0,0,72,27L65.86,47a61.75,61.75,0,0,1-9.66,1c-6.14,0-7.08-4.22-10.53-5C41.29,42,36,44,36,44" style="fill:#62d463;stroke:#4d4d4d;stroke-linecap:round;stroke-linejoin:round;stroke-width:6px"/></svg>