<svg xmlns="http://www.w3.org/2000/svg" width="349" height="130" fill="none" viewBox="0 0 349 130"><path fill="#fff" d="M15.2427 5.75366H163.99V84.4515H15.2427V5.75366Z"/><path fill="#6BBBE9" fill-rule="evenodd" d="M11.2427 5.75366C11.2427 3.54452 13.0335 1.75366 15.2427 1.75366H163.99C166.199 1.75366 167.99 3.54452 167.99 5.75366V84.4515C167.99 86.6607 166.199 88.4515 163.99 88.4515H15.2427C13.0335 88.4515 11.2427 86.6607 11.2427 84.4515V5.75366ZM19.2427 9.75366V80.4515H159.99V9.75366H19.2427Z" clip-rule="evenodd"/><path fill="#fff" d="M16.1275 84.4514H163.862L177.827 117.314H4L16.1275 84.4514Z"/><path fill="#6BBBE9" fill-rule="evenodd" d="M12.3749 83.0666C12.9548 81.4951 14.4524 80.4514 16.1275 80.4514H163.862C165.467 80.4514 166.916 81.4103 167.544 82.887L181.509 115.75C182.034 116.985 181.904 118.402 181.163 119.521C180.423 120.641 179.17 121.314 177.827 121.314H4.00002C2.69181 121.314 1.46627 120.675 0.718304 119.601C-0.0296625 118.528 -0.205521 117.157 0.247397 115.929L12.3749 83.0666ZM18.915 88.4514L9.73984 113.314H171.781L161.216 88.4514H18.915Z" clip-rule="evenodd"/><path fill="#fff" d="M31.6741 19.5906H146.694V68.8848H31.6741V19.5906Z"/><path fill="#6BBBE9" fill-rule="evenodd" d="M27.6741 19.5906C27.6741 17.3814 29.4649 15.5906 31.6741 15.5906H146.694C148.903 15.5906 150.694 17.3814 150.694 19.5906V68.8848C150.694 71.094 148.903 72.8848 146.694 72.8848H31.6741C29.4649 72.8848 27.6741 71.094 27.6741 68.8848V19.5906ZM35.6741 23.5906V64.8848H142.694V23.5906H35.6741Z" clip-rule="evenodd"/><path fill="#fff" d="M186.475 87.9106V4.0239L317.062 4.0239V87.9106L186.475 87.9106Z"/><path fill="#6BBBE9" fill-rule="evenodd" d="M186.475 91.9106C184.266 91.9106 182.475 90.1198 182.475 87.9106V4.0239C182.475 1.81476 184.266 0.0238953 186.475 0.0238953L317.062 0.0238953C319.271 0.0238953 321.062 1.81476 321.062 4.0239V87.9106C321.062 90.1198 319.271 91.9106 317.062 91.9106L186.475 91.9106ZM190.475 83.9106L313.062 83.9106V8.0239L190.475 8.0239V83.9106Z" clip-rule="evenodd"/><path fill="#6BBBE9" fill-rule="evenodd" d="M203.231 23.9146C203.231 21.7054 205.022 19.9146 207.231 19.9146H266.452C268.662 19.9146 270.452 21.7054 270.452 23.9146C270.452 26.1237 268.662 27.9146 266.452 27.9146H207.231C205.022 27.9146 203.231 26.1237 203.231 23.9146Z" clip-rule="evenodd"/><path fill="#fff" d="M214.149 125.098V41.2108L344.736 41.2108V125.098L214.149 125.098Z"/><path fill="#6BBBE9" fill-rule="evenodd" d="M214.149 129.098C211.94 129.098 210.149 127.307 210.149 125.098V41.2108C210.149 39.0016 211.94 37.2108 214.149 37.2108L344.736 37.2108C346.945 37.2108 348.736 39.0016 348.736 41.2108V125.098C348.736 127.307 346.945 129.098 344.736 129.098H214.149ZM218.149 121.098L340.736 121.098V45.2108L218.149 45.2108V121.098Z" clip-rule="evenodd"/><path fill="#6BBBE9" fill-rule="evenodd" d="M230.905 61.1014C230.905 58.8923 232.696 57.1014 234.905 57.1014H294.126C296.335 57.1014 298.126 58.8923 298.126 61.1014C298.126 63.3106 296.335 65.1014 294.126 65.1014H234.905C232.696 65.1014 230.905 63.3106 230.905 61.1014Z" clip-rule="evenodd"/><path fill="#6BBBE9" fill-rule="evenodd" d="M230.905 78.3978C230.905 76.1887 232.696 74.3978 234.905 74.3978H270.362C272.571 74.3978 274.362 76.1887 274.362 78.3978C274.362 80.607 272.571 82.3978 270.362 82.3978H234.905C232.696 82.3978 230.905 80.607 230.905 78.3978Z" clip-rule="evenodd"/><path fill="#6BBBE9" fill-rule="evenodd" d="M230.905 91.37C230.905 89.1609 232.696 87.37 234.905 87.37H270.362C272.571 87.37 274.362 89.1609 274.362 91.37C274.362 93.5791 272.571 95.37 270.362 95.37H234.905C232.696 95.37 230.905 93.5791 230.905 91.37Z" clip-rule="evenodd"/><path fill="#6BBBE9" fill-rule="evenodd" d="M230.905 104.342C230.905 102.133 232.696 100.342 234.905 100.342H270.362C272.571 100.342 274.362 102.133 274.362 104.342C274.362 106.551 272.571 108.342 270.362 108.342H234.905C232.696 108.342 230.905 106.551 230.905 104.342Z" clip-rule="evenodd"/><path fill="#F5D248" d="M287.658 74.9385H326.575V108.666H287.658V74.9385Z"/></svg>